<svg width="34" height="34" viewBox="0 0 34 34" fill="none" xmlns="http://www.w3.org/2000/svg">
<path fill-rule="evenodd" clip-rule="evenodd" d="M16.9999 2.8335C9.17992 2.8335 2.83325 9.18016 2.83325 17.0002C2.83325 24.8202 9.17992 31.1668 16.9999 31.1668C24.8199 31.1668 31.1666 24.8202 31.1666 17.0002C31.1666 9.18016 24.8199 2.8335 16.9999 2.8335ZM26.0099 23.8427C23.9841 21.3777 19.0683 20.5418 16.9999 20.5418C14.9316 20.5418 10.0158 21.3777 7.98992 23.8427C6.54492 21.9443 5.66659 19.5785 5.66659 17.0002C5.66659 10.7527 10.7524 5.66683 16.9999 5.66683C23.2474 5.66683 28.3333 10.7527 28.3333 17.0002C28.3333 19.5785 27.4549 21.9443 26.0099 23.8427ZM12.0416 13.4585C12.0416 10.7102 14.2516 8.50016 16.9999 8.50016C19.7483 8.50016 21.9583 10.7102 21.9583 13.4585C21.9583 16.2068 19.7483 18.4168 16.9999 18.4168C14.2516 18.4168 12.0416 16.2068 12.0416 13.4585Z" fill="black"/>
</svg>
