<svg width="16" height="16" viewBox="0 0 16 16" fill="none" xmlns="http://www.w3.org/2000/svg">
<mask id="path-1-inside-1_4261_11090" fill="white">
<path d="M7.99998 3.5C8.2535 3.49995 8.50641 3.52507 8.75498 3.575C9.54046 3.72544 10.2628 4.10788 10.8288 4.67295C11.3947 5.23801 11.7783 5.95976 11.93 6.745L12.06 7.42L12.735 7.54C13.4167 7.65726 14.0293 8.02715 14.4504 8.57594C14.8716 9.12473 15.0705 9.8121 15.0074 10.501C14.9443 11.1899 14.6239 11.8297 14.1101 12.2929C13.5962 12.756 12.9267 13.0085 12.235 13H3.74998C3.05825 13.0085 2.38873 12.756 1.87488 12.2929C1.36104 11.8297 1.04064 11.1899 0.977556 10.501C0.91447 9.8121 1.11334 9.12473 1.53451 8.57594C1.95568 8.02715 2.56821 7.65726 3.24998 7.54L3.91998 7.42L4.04998 6.745C4.22618 5.82815 4.71756 5.00182 5.43896 4.40917C6.16037 3.81652 7.06636 3.49489 7.99998 3.5ZM7.99998 2.5C6.83628 2.49903 5.7087 2.904 4.81152 3.64511C3.91433 4.38622 3.30375 5.41706 3.08498 6.56C2.16414 6.72672 1.33892 7.23171 0.771387 7.97578C0.203858 8.71985 -0.0649621 9.64923 0.017728 10.5814C0.100418 11.5135 0.528643 12.3811 1.21829 13.0136C1.90794 13.6462 2.80917 13.998 3.74498 14H12.245C13.1808 13.998 14.082 13.6462 14.7717 13.0136C15.4613 12.3811 15.8895 11.5135 15.9722 10.5814C16.0549 9.64923 15.7861 8.71985 15.2186 7.97578C14.651 7.23171 13.8258 6.72672 12.905 6.56C12.7167 5.57691 12.2376 4.67297 11.5298 3.96518C10.822 3.25739 9.91807 2.77833 8.93498 2.59C8.62671 2.5315 8.31374 2.50137 7.99998 2.5Z"/>
</mask>
<path d="M7.99998 3.5C8.2535 3.49995 8.50641 3.52507 8.75498 3.575C9.54046 3.72544 10.2628 4.10788 10.8288 4.67295C11.3947 5.23801 11.7783 5.95976 11.93 6.745L12.06 7.42L12.735 7.54C13.4167 7.65726 14.0293 8.02715 14.4504 8.57594C14.8716 9.12473 15.0705 9.8121 15.0074 10.501C14.9443 11.1899 14.6239 11.8297 14.1101 12.2929C13.5962 12.756 12.9267 13.0085 12.235 13H3.74998C3.05825 13.0085 2.38873 12.756 1.87488 12.2929C1.36104 11.8297 1.04064 11.1899 0.977556 10.501C0.91447 9.8121 1.11334 9.12473 1.53451 8.57594C1.95568 8.02715 2.56821 7.65726 3.24998 7.54L3.91998 7.42L4.04998 6.745C4.22618 5.82815 4.71756 5.00182 5.43896 4.40917C6.16037 3.81652 7.06636 3.49489 7.99998 3.5ZM7.99998 2.5C6.83628 2.49903 5.7087 2.904 4.81152 3.64511C3.91433 4.38622 3.30375 5.41706 3.08498 6.56C2.16414 6.72672 1.33892 7.23171 0.771387 7.97578C0.203858 8.71985 -0.0649621 9.64923 0.017728 10.5814C0.100418 11.5135 0.528643 12.3811 1.21829 13.0136C1.90794 13.6462 2.80917 13.998 3.74498 14H12.245C13.1808 13.998 14.082 13.6462 14.7717 13.0136C15.4613 12.3811 15.8895 11.5135 15.9722 10.5814C16.0549 9.64923 15.7861 8.71985 15.2186 7.97578C14.651 7.23171 13.8258 6.72672 12.905 6.56C12.7167 5.57691 12.2376 4.67297 11.5298 3.96518C10.822 3.25739 9.91807 2.77833 8.93498 2.59C8.62671 2.5315 8.31374 2.50137 7.99998 2.5Z" fill="black"/>
<path d="M7.99998 3.5L7.98356 6.49996L7.99207 6.5L8.00057 6.5L7.99998 3.5ZM8.75498 3.575L8.16419 6.51625L8.17742 6.51891L8.19067 6.52145L8.75498 3.575ZM11.93 6.745L14.8758 6.17765L14.8755 6.17605L11.93 6.745ZM12.06 7.42L9.11411 7.98735L9.50418 10.0127L11.5349 10.3737L12.06 7.42ZM12.735 7.54L12.2099 10.4937L12.2182 10.4952L12.2265 10.4966L12.735 7.54ZM12.235 13L12.2719 10.0002L12.2535 10H12.235V13ZM3.74998 13V10H3.7315L3.71302 10.0002L3.74998 13ZM3.24998 7.54L3.75847 10.4966L3.76868 10.4948L3.77887 10.493L3.24998 7.54ZM3.91998 7.42L4.44887 10.373L6.47632 10.0099L6.86584 7.98735L3.91998 7.42ZM4.04998 6.745L6.99584 7.31235L6.99606 7.31121L4.04998 6.745ZM7.99998 2.5L8.01309 -0.499988L8.00247 -0.499997L7.99998 2.5ZM3.08498 6.56L3.61944 9.51201L5.64457 9.14536L6.03148 7.124L3.08498 6.56ZM3.74498 14L3.73851 17H3.74498V14ZM12.245 14V17L12.2514 17L12.245 14ZM12.905 6.56L9.95855 7.12443L10.3457 9.14541L12.3705 9.51201L12.905 6.56ZM8.93498 2.59L9.4994 -0.356428L9.49434 -0.357389L8.93498 2.59ZM8.00057 6.5C8.05551 6.49999 8.11032 6.50544 8.16419 6.51625L9.34576 0.633749C8.9025 0.544714 8.45149 0.499912 7.99938 0.500002L8.00057 6.5ZM8.19067 6.52145C8.38704 6.55906 8.56763 6.65467 8.70912 6.79594L12.9484 2.54995C11.958 1.56109 10.6939 0.891816 9.31928 0.628553L8.19067 6.52145ZM8.70912 6.79594C8.85061 6.9372 8.9465 7.11764 8.98442 7.31395L14.8755 6.17605C14.6101 4.80188 13.9388 3.53882 12.9484 2.54995L8.70912 6.79594ZM8.98411 7.31235L9.11411 7.98735L15.0058 6.85265L14.8758 6.17765L8.98411 7.31235ZM11.5349 10.3737L12.2099 10.4937L13.2601 4.58631L12.5851 4.46631L11.5349 10.3737ZM12.2265 10.4966C12.1645 10.4859 12.1088 10.4523 12.0705 10.4024L16.8304 6.74947C15.9497 5.602 14.669 4.82858 13.2435 4.58341L12.2265 10.4966ZM12.0705 10.4024C12.0322 10.3525 12.0142 10.29 12.0199 10.2274L17.9949 10.7746C18.1268 9.33416 17.711 7.89694 16.8304 6.74947L12.0705 10.4024ZM12.0199 10.2274C12.0256 10.1648 12.0548 10.1066 12.1015 10.0645L16.1187 14.5212C17.1931 13.5528 17.863 12.215 17.9949 10.7746L12.0199 10.2274ZM12.1015 10.0645C12.1482 10.0224 12.2091 9.99946 12.2719 10.0002L12.198 15.9998C13.6443 16.0176 15.0443 15.4897 16.1187 14.5212L12.1015 10.0645ZM12.235 10H3.74998V16H12.235V10ZM3.71302 10.0002C3.7759 9.99946 3.83677 10.0224 3.88348 10.0645L-0.13371 14.5212C0.940685 15.4897 2.3406 16.0176 3.78693 15.9998L3.71302 10.0002ZM3.88348 10.0645C3.93019 10.1066 3.95932 10.1648 3.96506 10.2274L-2.00994 10.7746C-1.87804 12.215 -1.2081 13.5528 -0.13371 14.5212L3.88348 10.0645ZM3.96506 10.2274C3.97079 10.29 3.95271 10.3525 3.91442 10.4024L-0.845408 6.74947C-1.72604 7.89694 -2.14185 9.33416 -2.00994 10.7746L3.96506 10.2274ZM3.91442 10.4024C3.87614 10.4523 3.82045 10.4859 3.75847 10.4966L2.74148 4.58341C1.31597 4.82858 0.0352206 5.602 -0.845408 6.74947L3.91442 10.4024ZM3.77887 10.493L4.44887 10.373L3.39108 4.46699L2.72108 4.58699L3.77887 10.493ZM6.86584 7.98735L6.99584 7.31235L1.10411 6.17765L0.974112 6.85265L6.86584 7.98735ZM6.99606 7.31121C7.04011 7.08199 7.16296 6.87541 7.34331 6.72725L3.53462 2.0911C2.27216 3.12824 1.41226 4.57431 1.10389 6.1788L6.99606 7.31121ZM7.34331 6.72725C7.52366 6.57909 7.75016 6.49868 7.98356 6.49996L8.01639 0.500047C6.38257 0.491106 4.79708 1.05396 3.53462 2.0911L7.34331 6.72725ZM8.00247 -0.499997C6.14056 -0.501544 4.33642 0.146395 2.90093 1.33217L6.7221 5.95804C7.08097 5.6616 7.53201 5.49961 7.99748 5.5L8.00247 -0.499997ZM2.90093 1.33217C1.46544 2.51795 0.488507 4.1673 0.138469 5.996L6.03148 7.124C6.11899 6.66682 6.36323 6.25449 6.7221 5.95804L2.90093 1.33217ZM2.55051 3.608C0.893008 3.90809 -0.592397 4.81707 -1.61395 6.15639L3.15673 9.79516C3.27023 9.64635 3.43528 9.54535 3.61944 9.51201L2.55051 3.608ZM-1.61395 6.15639C-2.6355 7.49572 -3.11938 9.1686 -2.97054 10.8465L3.00599 10.3163C2.98946 10.1299 3.04322 9.94398 3.15673 9.79516L-1.61395 6.15639ZM-2.97054 10.8465C-2.82169 12.5243 -2.05089 14.0859 -0.809523 15.2245L3.24611 10.8027C3.10818 10.6762 3.02253 10.5027 3.00599 10.3163L-2.97054 10.8465ZM-0.809523 15.2245C0.431844 16.3631 2.05406 16.9964 3.73851 17L3.75144 11C3.56428 10.9996 3.38404 10.9292 3.24611 10.8027L-0.809523 15.2245ZM3.74498 17H12.245V11H3.74498V17ZM12.2514 17C13.9359 16.9964 15.5581 16.3631 16.7995 15.2245L12.7438 10.8027C12.6059 10.9292 12.4257 10.9996 12.2385 11L12.2514 17ZM16.7995 15.2245C18.0408 14.0859 18.8116 12.5243 18.9605 10.8465L12.984 10.3163C12.9674 10.5027 12.8818 10.6762 12.7438 10.8027L16.7995 15.2245ZM18.9605 10.8465C19.1093 9.1686 18.6255 7.49572 17.6039 6.15639L12.8332 9.79516C12.9467 9.94398 13.0005 10.1299 12.984 10.3163L18.9605 10.8465ZM17.6039 6.15639C16.5823 4.81707 15.0969 3.90809 13.4394 3.608L12.3705 9.51201C12.5547 9.54535 12.7197 9.64635 12.8332 9.79516L17.6039 6.15639ZM15.8514 5.99558C15.5501 4.42263 14.7836 2.97632 13.6511 1.84386L9.40848 6.0865C9.6916 6.36961 9.88322 6.73119 9.95855 7.12443L15.8514 5.99558ZM13.6511 1.84386C12.5187 0.71139 11.0724 -0.0551052 9.4994 -0.356424L8.37055 5.53643C8.76379 5.61176 9.12536 5.80338 9.40848 6.0865L13.6511 1.84386ZM9.49434 -0.357389C9.00598 -0.450071 8.51015 -0.497797 8.01309 -0.49997L7.98686 5.49997C8.11732 5.50054 8.24745 5.51307 8.37561 5.53739L9.49434 -0.357389Z" fill="black" mask="url(#path-1-inside-1_4261_11090)"/>
<mask id="path-3-inside-2_4261_11090" fill="white">
<path d="M6.7896 9.91412C6.80079 9.91405 6.81185 9.91649 6.82197 9.92125C6.83209 9.926 6.84102 9.93297 6.8481 9.94162L7.0096 10.1156C6.88668 10.2578 6.7341 10.3713 6.5626 10.4481C6.3876 10.5276 6.17611 10.5671 5.92761 10.5671C5.71261 10.5671 5.5176 10.5296 5.3416 10.4551C5.17065 10.3842 5.01712 10.2771 4.89161 10.1411C4.76353 10.0006 4.66522 9.83564 4.60261 9.65612C4.53252 9.4565 4.49783 9.24618 4.50011 9.03462C4.50011 8.80862 4.53611 8.60112 4.60711 8.41262C4.67081 8.23273 4.77187 8.06835 4.90363 7.9303C5.03539 7.79225 5.19488 7.68364 5.37161 7.61162C5.56113 7.53545 5.76386 7.49756 5.96811 7.50012C6.18161 7.50012 6.37011 7.53462 6.53361 7.60262C6.69661 7.67062 6.84011 7.76362 6.9646 7.88062L6.83061 8.06712C6.82247 8.0809 6.81137 8.09268 6.7981 8.10162C6.782 8.11132 6.76338 8.11601 6.7446 8.11512C6.7196 8.11512 6.6886 8.10162 6.6526 8.07412C6.54405 7.99176 6.42137 7.92992 6.29061 7.89162C6.18509 7.86186 6.07571 7.84804 5.96611 7.85062C5.81111 7.85062 5.6696 7.87812 5.5406 7.93162C5.41416 7.98392 5.30093 8.06368 5.2091 8.16512C5.1166 8.26662 5.04411 8.39112 4.99261 8.53762C4.93905 8.6974 4.91301 8.86512 4.9156 9.03362C4.9156 9.22062 4.94261 9.38712 4.99611 9.53362C5.04961 9.68012 5.12311 9.80412 5.21611 9.90512C5.30911 10.0061 5.41811 10.0836 5.54461 10.1366C5.67111 10.1896 5.80761 10.2161 5.95411 10.2161C6.04361 10.2161 6.12411 10.2111 6.19561 10.2001C6.26351 10.191 6.33023 10.1746 6.39461 10.1511C6.45416 10.1296 6.51104 10.1012 6.5641 10.0666C6.6166 10.0321 6.6686 9.99112 6.7206 9.94412C6.73911 9.92594 6.76369 9.91525 6.7896 9.91412ZM10.1941 9.03512C10.1941 9.25962 10.1586 9.46562 10.0871 9.65412C10.0203 9.83429 9.91772 9.99909 9.7856 10.1386C9.6538 10.2756 9.49447 10.3832 9.31811 10.4541C9.126 10.5304 8.92079 10.5683 8.71411 10.5656C8.49361 10.5656 8.2926 10.5286 8.1111 10.4541C7.93504 10.3831 7.77604 10.2756 7.64461 10.1386C7.51221 9.9993 7.40962 9.83444 7.3431 9.65412C7.26993 9.45606 7.23366 9.24626 7.2361 9.03512C7.2361 8.81012 7.27161 8.60412 7.3431 8.41612C7.4146 8.22862 7.51511 8.06612 7.64461 7.93062C7.77605 7.79329 7.93502 7.68526 8.1111 7.61362C8.30259 7.53625 8.50759 7.49783 8.71411 7.50062C8.93511 7.50062 9.13611 7.53812 9.31811 7.61362C9.49961 7.68862 9.65611 7.79512 9.7856 7.93062C9.91561 8.06662 10.0161 8.22862 10.0871 8.41612C10.1586 8.60412 10.1941 8.81012 10.1941 9.03512ZM9.7771 9.03512C9.7771 8.85062 9.7521 8.68512 9.7016 8.53912C9.65688 8.40186 9.58418 8.27537 9.4881 8.16762C9.39523 8.0658 9.28077 7.98603 9.1531 7.93412C9.01331 7.87794 8.86375 7.85007 8.7131 7.85212C8.55261 7.85212 8.4071 7.87962 8.2756 7.93412C8.14778 7.98601 8.03316 8.06578 7.9401 8.16762C7.84711 8.26862 7.7756 8.39262 7.7251 8.53912C7.6751 8.68562 7.6496 8.85062 7.6496 9.03512C7.6496 9.21912 7.6751 9.38412 7.7251 9.53012C7.7756 9.67562 7.84661 9.79912 7.9401 9.90062C8.0326 10.0021 8.1446 10.0791 8.2756 10.1326C8.4071 10.1866 8.55261 10.2136 8.7131 10.2136C8.87461 10.2136 9.0216 10.1866 9.1531 10.1326C9.2841 10.0791 9.3956 10.0016 9.4881 9.90062C9.5806 9.79912 9.6511 9.67562 9.7016 9.53012C9.7526 9.38412 9.7771 9.21912 9.7771 9.03512ZM11.5951 11.7221C11.6186 11.7221 11.6376 11.7291 11.6516 11.7431C11.6585 11.7502 11.6639 11.7586 11.6675 11.7677C11.6711 11.7769 11.6728 11.7868 11.6726 11.7966V11.9286H10.5056V11.8541C10.5064 11.8191 10.5207 11.7858 10.5456 11.7611L11.1056 11.1986C11.1521 11.1511 11.1941 11.1061 11.2326 11.0621C11.2706 11.0186 11.3031 10.9751 11.3301 10.9306C11.3571 10.8866 11.3771 10.8421 11.3921 10.7971C11.407 10.7502 11.4144 10.7013 11.4141 10.6521C11.4151 10.6061 11.4068 10.5603 11.3896 10.5176C11.3753 10.4812 11.353 10.4485 11.3242 10.422C11.2955 10.3955 11.2611 10.3759 11.2236 10.3646C11.1434 10.3387 11.0571 10.339 10.9771 10.3656C10.9056 10.3897 10.8448 10.438 10.8051 10.5021C10.7856 10.5346 10.7716 10.5701 10.7636 10.6071C10.7541 10.6356 10.7406 10.6546 10.7241 10.6641C10.7071 10.6736 10.6841 10.6761 10.6536 10.6721L10.5401 10.6521C10.5516 10.5726 10.5736 10.5021 10.6071 10.4406C10.6396 10.3796 10.6816 10.3281 10.7316 10.2861C10.7816 10.2451 10.8386 10.2136 10.9026 10.1916C10.9671 10.1701 11.0366 10.1596 11.1116 10.1596C11.1856 10.1596 11.2546 10.1706 11.3186 10.1921C11.3801 10.2113 11.4368 10.2435 11.4848 10.2865C11.5329 10.3294 11.5711 10.3821 11.5971 10.4411C11.6249 10.5058 11.6385 10.5757 11.6371 10.6461C11.6371 10.7111 11.6276 10.7721 11.6081 10.8271C11.5885 10.8832 11.5619 10.9366 11.5291 10.9861C11.4956 11.0371 11.4571 11.0861 11.4136 11.1341C11.3701 11.1821 11.3236 11.2306 11.2751 11.2796L10.8136 11.7501C10.8461 11.7416 10.8791 11.7341 10.9126 11.7291C10.9456 11.7236 10.9781 11.7211 11.0091 11.7211H11.5951V11.7221Z"/>
</mask>
<path d="M6.7896 9.91412C6.80079 9.91405 6.81185 9.91649 6.82197 9.92125C6.83209 9.926 6.84102 9.93297 6.8481 9.94162L7.0096 10.1156C6.88668 10.2578 6.7341 10.3713 6.5626 10.4481C6.3876 10.5276 6.17611 10.5671 5.92761 10.5671C5.71261 10.5671 5.5176 10.5296 5.3416 10.4551C5.17065 10.3842 5.01712 10.2771 4.89161 10.1411C4.76353 10.0006 4.66522 9.83564 4.60261 9.65612C4.53252 9.4565 4.49783 9.24618 4.50011 9.03462C4.50011 8.80862 4.53611 8.60112 4.60711 8.41262C4.67081 8.23273 4.77187 8.06835 4.90363 7.9303C5.03539 7.79225 5.19488 7.68364 5.37161 7.61162C5.56113 7.53545 5.76386 7.49756 5.96811 7.50012C6.18161 7.50012 6.37011 7.53462 6.53361 7.60262C6.69661 7.67062 6.84011 7.76362 6.9646 7.88062L6.83061 8.06712C6.82247 8.0809 6.81137 8.09268 6.7981 8.10162C6.782 8.11132 6.76338 8.11601 6.7446 8.11512C6.7196 8.11512 6.6886 8.10162 6.6526 8.07412C6.54405 7.99176 6.42137 7.92992 6.29061 7.89162C6.18509 7.86186 6.07571 7.84804 5.96611 7.85062C5.81111 7.85062 5.6696 7.87812 5.5406 7.93162C5.41416 7.98392 5.30093 8.06368 5.2091 8.16512C5.1166 8.26662 5.04411 8.39112 4.99261 8.53762C4.93905 8.6974 4.91301 8.86512 4.9156 9.03362C4.9156 9.22062 4.94261 9.38712 4.99611 9.53362C5.04961 9.68012 5.12311 9.80412 5.21611 9.90512C5.30911 10.0061 5.41811 10.0836 5.54461 10.1366C5.67111 10.1896 5.80761 10.2161 5.95411 10.2161C6.04361 10.2161 6.12411 10.2111 6.19561 10.2001C6.26351 10.191 6.33023 10.1746 6.39461 10.1511C6.45416 10.1296 6.51104 10.1012 6.5641 10.0666C6.6166 10.0321 6.6686 9.99112 6.7206 9.94412C6.73911 9.92594 6.76369 9.91525 6.7896 9.91412ZM10.1941 9.03512C10.1941 9.25962 10.1586 9.46562 10.0871 9.65412C10.0203 9.83429 9.91772 9.99909 9.7856 10.1386C9.6538 10.2756 9.49447 10.3832 9.31811 10.4541C9.126 10.5304 8.92079 10.5683 8.71411 10.5656C8.49361 10.5656 8.2926 10.5286 8.1111 10.4541C7.93504 10.3831 7.77604 10.2756 7.64461 10.1386C7.51221 9.9993 7.40962 9.83444 7.3431 9.65412C7.26993 9.45606 7.23366 9.24626 7.2361 9.03512C7.2361 8.81012 7.27161 8.60412 7.3431 8.41612C7.4146 8.22862 7.51511 8.06612 7.64461 7.93062C7.77605 7.79329 7.93502 7.68526 8.1111 7.61362C8.30259 7.53625 8.50759 7.49783 8.71411 7.50062C8.93511 7.50062 9.13611 7.53812 9.31811 7.61362C9.49961 7.68862 9.65611 7.79512 9.7856 7.93062C9.91561 8.06662 10.0161 8.22862 10.0871 8.41612C10.1586 8.60412 10.1941 8.81012 10.1941 9.03512ZM9.7771 9.03512C9.7771 8.85062 9.7521 8.68512 9.7016 8.53912C9.65688 8.40186 9.58418 8.27537 9.4881 8.16762C9.39523 8.0658 9.28077 7.98603 9.1531 7.93412C9.01331 7.87794 8.86375 7.85007 8.7131 7.85212C8.55261 7.85212 8.4071 7.87962 8.2756 7.93412C8.14778 7.98601 8.03316 8.06578 7.9401 8.16762C7.84711 8.26862 7.7756 8.39262 7.7251 8.53912C7.6751 8.68562 7.6496 8.85062 7.6496 9.03512C7.6496 9.21912 7.6751 9.38412 7.7251 9.53012C7.7756 9.67562 7.84661 9.79912 7.9401 9.90062C8.0326 10.0021 8.1446 10.0791 8.2756 10.1326C8.4071 10.1866 8.55261 10.2136 8.7131 10.2136C8.87461 10.2136 9.0216 10.1866 9.1531 10.1326C9.2841 10.0791 9.3956 10.0016 9.4881 9.90062C9.5806 9.79912 9.6511 9.67562 9.7016 9.53012C9.7526 9.38412 9.7771 9.21912 9.7771 9.03512ZM11.5951 11.7221C11.6186 11.7221 11.6376 11.7291 11.6516 11.7431C11.6585 11.7502 11.6639 11.7586 11.6675 11.7677C11.6711 11.7769 11.6728 11.7868 11.6726 11.7966V11.9286H10.5056V11.8541C10.5064 11.8191 10.5207 11.7858 10.5456 11.7611L11.1056 11.1986C11.1521 11.1511 11.1941 11.1061 11.2326 11.0621C11.2706 11.0186 11.3031 10.9751 11.3301 10.9306C11.3571 10.8866 11.3771 10.8421 11.3921 10.7971C11.407 10.7502 11.4144 10.7013 11.4141 10.6521C11.4151 10.6061 11.4068 10.5603 11.3896 10.5176C11.3753 10.4812 11.353 10.4485 11.3242 10.422C11.2955 10.3955 11.2611 10.3759 11.2236 10.3646C11.1434 10.3387 11.0571 10.339 10.9771 10.3656C10.9056 10.3897 10.8448 10.438 10.8051 10.5021C10.7856 10.5346 10.7716 10.5701 10.7636 10.6071C10.7541 10.6356 10.7406 10.6546 10.7241 10.6641C10.7071 10.6736 10.6841 10.6761 10.6536 10.6721L10.5401 10.6521C10.5516 10.5726 10.5736 10.5021 10.6071 10.4406C10.6396 10.3796 10.6816 10.3281 10.7316 10.2861C10.7816 10.2451 10.8386 10.2136 10.9026 10.1916C10.9671 10.1701 11.0366 10.1596 11.1116 10.1596C11.1856 10.1596 11.2546 10.1706 11.3186 10.1921C11.3801 10.2113 11.4368 10.2435 11.4848 10.2865C11.5329 10.3294 11.5711 10.3821 11.5971 10.4411C11.6249 10.5058 11.6385 10.5757 11.6371 10.6461C11.6371 10.7111 11.6276 10.7721 11.6081 10.8271C11.5885 10.8832 11.5619 10.9366 11.5291 10.9861C11.4956 11.0371 11.4571 11.0861 11.4136 11.1341C11.3701 11.1821 11.3236 11.2306 11.2751 11.2796L10.8136 11.7501C10.8461 11.7416 10.8791 11.7341 10.9126 11.7291C10.9456 11.7236 10.9781 11.7211 11.0091 11.7211H11.5951V11.7221Z" fill="black" stroke="black" stroke-width="4" mask="url(#path-3-inside-2_4261_11090)"/>
</svg>
