<svg width="28" height="21" viewBox="0 0 28 21" fill="none" xmlns="http://www.w3.org/2000/svg">
<mask id="path-1-inside-1_5594_13106" fill="white">
<path d="M14 2.125C14.4437 2.12492 14.8863 2.16888 15.3212 2.25625C16.6958 2.51952 17.9599 3.18879 18.9504 4.17765C19.9408 5.16652 20.6121 6.42958 20.8775 7.80375L21.105 8.985L22.2862 9.195C23.4793 9.4002 24.5513 10.0475 25.2883 11.0079C26.0254 11.9683 26.3734 13.1712 26.263 14.3767C26.1526 15.5823 25.5919 16.702 24.6926 17.5125C23.7934 18.3231 22.6218 18.7649 21.4112 18.75H6.56249C5.35197 18.7649 4.1803 18.3231 3.28108 17.5125C2.38186 16.702 1.82115 15.5823 1.71075 14.3767C1.60035 13.1712 1.94837 11.9683 2.68542 11.0079C3.42247 10.0475 4.4944 9.4002 5.68749 9.195L6.85999 8.985L7.08749 7.80375C7.39585 6.19927 8.25575 4.75319 9.51822 3.71605C10.7807 2.67892 12.3662 2.11606 14 2.125ZM14 0.375003C11.9635 0.373311 9.99025 1.08199 8.42018 2.37894C6.85011 3.67588 5.78159 5.47985 5.39874 7.48C3.78728 7.77176 2.34314 8.65549 1.34996 9.95761C0.356782 11.2597 -0.113653 12.8861 0.0310546 14.5174C0.175762 16.1487 0.925155 17.6669 2.13204 18.7738C3.33893 19.8808 4.91608 20.4965 6.55374 20.5H21.4287C23.0664 20.4965 24.6436 19.8808 25.8504 18.7738C27.0573 17.6669 27.8067 16.1487 27.9514 14.5174C28.0961 12.8861 27.6257 11.2597 26.6325 9.95761C25.6393 8.65549 24.1952 7.77176 22.5837 7.48C22.2542 5.75959 21.4158 4.1777 20.1772 2.93906C18.9385 1.70042 17.3567 0.86207 15.6362 0.532503C15.0968 0.430123 14.5491 0.377403 14 0.375003Z"/>
</mask>
<path d="M14 2.125C14.4437 2.12492 14.8863 2.16888 15.3212 2.25625C16.6958 2.51952 17.9599 3.18879 18.9504 4.17765C19.9408 5.16652 20.6121 6.42958 20.8775 7.80375L21.105 8.985L22.2862 9.195C23.4793 9.4002 24.5513 10.0475 25.2883 11.0079C26.0254 11.9683 26.3734 13.1712 26.263 14.3767C26.1526 15.5823 25.5919 16.702 24.6926 17.5125C23.7934 18.3231 22.6218 18.7649 21.4112 18.75H6.56249C5.35197 18.7649 4.1803 18.3231 3.28108 17.5125C2.38186 16.702 1.82115 15.5823 1.71075 14.3767C1.60035 13.1712 1.94837 11.9683 2.68542 11.0079C3.42247 10.0475 4.4944 9.4002 5.68749 9.195L6.85999 8.985L7.08749 7.80375C7.39585 6.19927 8.25575 4.75319 9.51822 3.71605C10.7807 2.67892 12.3662 2.11606 14 2.125ZM14 0.375003C11.9635 0.373311 9.99025 1.08199 8.42018 2.37894C6.85011 3.67588 5.78159 5.47985 5.39874 7.48C3.78728 7.77176 2.34314 8.65549 1.34996 9.95761C0.356782 11.2597 -0.113653 12.8861 0.0310546 14.5174C0.175762 16.1487 0.925155 17.6669 2.13204 18.7738C3.33893 19.8808 4.91608 20.4965 6.55374 20.5H21.4287C23.0664 20.4965 24.6436 19.8808 25.8504 18.7738C27.0573 17.6669 27.8067 16.1487 27.9514 14.5174C28.0961 12.8861 27.6257 11.2597 26.6325 9.95761C25.6393 8.65549 24.1952 7.77176 22.5837 7.48C22.2542 5.75959 21.4158 4.1777 20.1772 2.93906C18.9385 1.70042 17.3567 0.86207 15.6362 0.532503C15.0968 0.430123 14.5491 0.377403 14 0.375003Z" fill="white"/>
<path d="M14 2.125L13.9836 5.12496L13.9921 5.125L14.0006 5.125L14 2.125ZM15.3212 2.25625L14.7305 5.19751L14.7437 5.20016L14.7569 5.2027L15.3212 2.25625ZM20.8775 7.80375L23.8234 7.2364L23.823 7.23481L20.8775 7.80375ZM21.105 8.985L18.1591 9.55236L18.5492 11.5777L20.5799 11.9387L21.105 8.985ZM22.2862 9.195L21.7611 12.1487L21.7694 12.1502L21.7777 12.1516L22.2862 9.195ZM21.4112 18.75L21.4482 15.7502L21.4297 15.75H21.4112V18.75ZM6.56249 18.75V15.75H6.54401L6.52553 15.7502L6.56249 18.75ZM5.68749 9.195L6.19598 12.1516L6.20619 12.1498L6.21639 12.148L5.68749 9.195ZM6.85999 8.985L7.38889 11.938L9.41633 11.5749L9.80585 9.55236L6.85999 8.985ZM7.08749 7.80375L10.0334 8.37111L10.0336 8.36996L7.08749 7.80375ZM14 0.375003L14.0131 -2.62499L14.0025 -2.625L14 0.375003ZM5.39874 7.48L5.93321 10.432L7.95833 10.0654L8.34525 8.044L5.39874 7.48ZM6.55374 20.5L6.54727 23.5H6.55374V20.5ZM21.4287 20.5L21.4287 23.5L21.4352 23.5L21.4287 20.5ZM22.5837 7.48L19.6373 8.04443L20.0245 10.0654L22.0493 10.432L22.5837 7.48ZM15.6362 0.532503L16.2007 -2.41393L16.1956 -2.41489L15.6362 0.532503ZM14.0006 5.125C14.2457 5.12495 14.4902 5.14924 14.7305 5.19751L15.912 -0.685C15.2823 -0.81148 14.6417 -0.875124 13.9994 -0.874997L14.0006 5.125ZM14.7569 5.2027C15.5424 5.35314 16.2648 5.73558 16.8307 6.30065L21.07 2.05466C19.6551 0.641995 17.8492 -0.314106 15.8855 -0.690195L14.7569 5.2027ZM16.8307 6.30065C17.3967 6.86571 17.7803 7.58746 17.9319 8.3727L23.823 7.23481C23.4439 5.2717 22.4849 3.46733 21.07 2.05466L16.8307 6.30065ZM17.9316 8.37111L18.1591 9.55236L24.0509 8.41765L23.8234 7.2364L17.9316 8.37111ZM20.5799 11.9387L21.7611 12.1487L22.8113 6.24132L21.6301 6.03132L20.5799 11.9387ZM21.7777 12.1516C22.2271 12.2289 22.6308 12.4727 22.9084 12.8344L27.6682 9.18143C26.4717 7.62237 24.7316 6.57152 22.7947 6.23841L21.7777 12.1516ZM22.9084 12.8344C23.186 13.1961 23.3171 13.6491 23.2755 14.1032L29.2505 14.6503C29.4297 12.6932 28.8647 10.7405 27.6682 9.18143L22.9084 12.8344ZM23.2755 14.1032C23.2339 14.5572 23.0227 14.9789 22.6841 15.2842L26.7012 19.7409C28.161 18.4251 29.0713 16.6074 29.2505 14.6503L23.2755 14.1032ZM22.6841 15.2842C22.3454 15.5894 21.9041 15.7559 21.4482 15.7502L21.3743 21.7498C23.3394 21.774 25.2415 21.0567 26.7012 19.7409L22.6841 15.2842ZM21.4112 15.75H6.56249V21.75H21.4112V15.75ZM6.52553 15.7502C6.06962 15.7559 5.62834 15.5894 5.28967 15.2842L1.27248 19.7409C2.73226 21.0567 4.63432 21.774 6.59945 21.7498L6.52553 15.7502ZM5.28967 15.2842C4.95101 14.9789 4.73983 14.5572 4.69825 14.1032L-1.27675 14.6503C-1.09753 16.6074 -0.18729 18.4251 1.27248 19.7409L5.28967 15.2842ZM4.69825 14.1032C4.65667 13.6491 4.78774 13.1961 5.06533 12.8344L0.305503 9.18143C-0.891004 10.7405 -1.45597 12.6932 -1.27675 14.6503L4.69825 14.1032ZM5.06533 12.8344C5.34292 12.4727 5.74664 12.2289 6.19598 12.1516L5.17899 6.23841C3.24215 6.57152 1.50201 7.62237 0.305503 9.18143L5.06533 12.8344ZM6.21639 12.148L7.38889 11.938L6.33109 6.03199L5.15859 6.24199L6.21639 12.148ZM9.80585 9.55236L10.0334 8.37111L4.14162 7.2364L3.91412 8.41765L9.80585 9.55236ZM10.0336 8.36996C10.2098 7.45311 10.7012 6.62678 11.4226 6.03413L7.61387 1.39798C5.81036 2.8796 4.58192 4.94543 4.1414 7.23755L10.0336 8.36996ZM11.4226 6.03413C12.144 5.44148 13.05 5.11985 13.9836 5.12496L14.0164 -0.874952C11.6824 -0.887724 9.41739 -0.0836454 7.61387 1.39798L11.4226 6.03413ZM14.0025 -2.625C11.2678 -2.62727 8.61798 -1.67561 6.5096 0.0660031L10.3308 4.69187C11.3625 3.8396 12.6592 3.37389 13.9975 3.375L14.0025 -2.625ZM6.5096 0.0660031C4.40122 1.80761 2.96635 4.23009 2.45223 6.91601L8.34525 8.044C8.59684 6.72962 9.29901 5.54415 10.3308 4.69187L6.5096 0.0660031ZM4.86427 4.528C2.51615 4.95313 0.411822 6.24085 -1.03538 8.13823L3.7353 11.777C4.27445 11.0701 5.05841 10.5904 5.93321 10.432L4.86427 4.528ZM-1.03538 8.13823C-2.48258 10.0356 -3.16807 12.4055 -2.95721 14.7825L3.01932 14.2523C2.94076 13.3668 3.19614 12.4839 3.7353 11.777L-1.03538 8.13823ZM-2.95721 14.7825C-2.74635 17.1595 -1.65438 19.3717 0.104226 20.9847L4.15985 16.5629C3.50469 15.962 3.09788 15.1378 3.01932 14.2523L-2.95721 14.7825ZM0.104226 20.9847C1.86283 22.5977 4.16097 23.4949 6.54727 23.5L6.5602 17.5C5.67119 17.4981 4.81502 17.1639 4.15985 16.5629L0.104226 20.9847ZM6.55374 23.5H21.4287V17.5H6.55374V23.5ZM21.4352 23.5C23.8215 23.4949 26.1196 22.5977 27.8783 20.9847L23.8226 16.5629C23.1675 17.1639 22.3113 17.4981 21.4223 17.5L21.4352 23.5ZM27.8783 20.9847C29.6369 19.3717 30.7288 17.1595 30.9397 14.7825L24.9632 14.2523C24.8846 15.1378 24.4778 15.962 23.8226 16.5629L27.8783 20.9847ZM30.9397 14.7825C31.1505 12.4055 30.4651 10.0356 29.0179 8.13823L24.2472 11.777C24.7863 12.4839 25.0417 13.3668 24.9632 14.2523L30.9397 14.7825ZM29.0179 8.13823C27.5707 6.24085 25.4663 4.95313 23.1182 4.528L22.0493 10.432C22.9241 10.5904 23.708 11.0701 24.2472 11.777L29.0179 8.13823ZM25.5302 6.91558C25.0876 4.60531 23.9618 2.48105 22.2985 0.81774L18.0559 5.06038C18.8698 5.87434 19.4207 6.91387 19.6373 8.04443L25.5302 6.91558ZM22.2985 0.81774C20.6352 -0.845571 18.5109 -1.97136 16.2007 -2.41392L15.0718 3.47893C16.2024 3.6955 17.2419 4.24642 18.0559 5.06038L22.2985 0.81774ZM16.1956 -2.41489C15.476 -2.55145 14.7455 -2.62177 14.0131 -2.62497L13.9869 3.37497C14.3527 3.37657 14.7175 3.41169 15.0769 3.47989L16.1956 -2.41489Z" fill="white" mask="url(#path-1-inside-1_5594_13106)"/>
</svg>
