<svg width="28" height="28" viewBox="0 0 28 28" fill="none" xmlns="http://www.w3.org/2000/svg">
<path d="M27.5 6.36472C27.5 7.80483 26.1927 9.27272 23.6928 10.4095C21.2381 11.5257 17.8118 12.2294 14 12.2294C10.1882 12.2294 6.76185 11.5257 4.30717 10.4095C1.80732 9.27272 0.5 7.80483 0.5 6.36472C0.5 4.92461 1.80732 3.45672 4.30717 2.31998C6.76185 1.20377 10.1882 0.5 14 0.5C17.8118 0.5 21.2381 1.20377 23.6928 2.31998C26.1927 3.45672 27.5 4.92461 27.5 6.36472ZM0.5 21.6353C0.5 21.0955 0.686062 20.5569 1.05617 20.0217C4.15318 22.1034 8.81009 23.4058 14 23.4058C19.1908 23.4058 23.848 22.103 26.9448 20.0263C27.314 20.5574 27.5 21.0956 27.5 21.6353C27.5 23.0754 26.1927 24.5433 23.6928 25.68C21.2381 26.7962 17.8118 27.5 14 27.5C10.1882 27.5 6.76185 26.7962 4.30717 25.68C1.80732 24.5433 0.5 23.0754 0.5 21.6353ZM1.05618 12.3864C4.15318 14.4681 8.81009 15.7706 14 15.7706C19.1908 15.7706 23.848 14.4677 26.9448 12.391C27.314 12.9221 27.5 13.4603 27.5 14C27.5 15.4401 26.1927 16.908 23.6928 18.0447C21.2381 19.161 17.8118 19.8647 14 19.8647C10.1882 19.8647 6.76185 19.161 4.30717 18.0447C1.80732 16.908 0.5 15.4401 0.5 14C0.5 13.4602 0.686062 12.9217 1.05618 12.3864Z" fill="white" stroke="white"/>
</svg>
