<svg width="12" height="12" viewBox="0 0 12 12" fill="none" xmlns="http://www.w3.org/2000/svg">
<path d="M5.05424 6.77842C4.71188 6.45511 4.50473 6.02461 4.47133 5.567C4.45159 5.31029 4.49016 5.05255 4.58442 4.81124C4.67868 4.56994 4.82643 4.35072 5.01765 4.16846M6.93955 5.56994C7.70801 6.30032 7.7245 7.46912 6.97666 8.1804" stroke="#070707" stroke-width="1.66667" stroke-linecap="round" stroke-linejoin="round"/>
<path d="M4.93918 4.22227L7.66664 1.52315C8.41448 0.812366 9.64421 0.827552 10.4127 1.55842C11.1811 2.2888 11.1976 3.4576 10.4498 4.16839L9.46537 5.15937M2.37561 6.9836C2.11276 7.23343 1.56902 7.73309 1.56902 7.73309C0.820669 8.44387 0.800054 9.71114 1.56902 10.442C2.33696 11.1719 3.56669 11.1881 4.31504 10.4768L6.97653 8.18033" stroke="#070707" stroke-width="1.66667" stroke-linecap="round" stroke-linejoin="round"/>
</svg>
