<svg width="34" height="34" viewBox="0 0 34 34" fill="none" xmlns="http://www.w3.org/2000/svg">
<g clip-path="url(#clip0_5279_27499)">
<path d="M16.8302 12.948C18.6435 13.033 19.111 14.5772 19.1393 15.2997H21.6752C21.5618 12.4947 19.5643 10.7805 16.7877 10.7805C13.6568 10.7805 11.3335 12.7497 11.3335 17.198C11.3335 19.9463 12.651 23.2047 16.7735 23.2047C19.9185 23.2047 21.6043 20.8672 21.6468 19.0255H19.111C19.0685 19.8613 18.4735 20.9805 16.8018 21.0655C14.946 21.0088 14.1668 19.5638 14.1668 17.198C14.1668 13.1038 15.9802 12.9763 16.8302 12.948ZM17.0002 2.83301C9.18016 2.83301 2.8335 9.17967 2.8335 16.9997C2.8335 24.8197 9.18016 31.1663 17.0002 31.1663C24.8202 31.1663 31.1668 24.8197 31.1668 16.9997C31.1668 9.17967 24.8202 2.83301 17.0002 2.83301ZM17.0002 28.333C10.7527 28.333 5.66683 23.2472 5.66683 16.9997C5.66683 10.7522 10.7527 5.66634 17.0002 5.66634C23.2477 5.66634 28.3335 10.7522 28.3335 16.9997C28.3335 23.2472 23.2477 28.333 17.0002 28.333Z" fill="#1C3FB7"/>
</g>
<defs>
<clipPath id="clip0_5279_27499">
<rect width="34" height="34" fill="white"/>
</clipPath>
</defs>
</svg>
