<svg width="34" height="32" viewBox="0 0 34 32" fill="none" xmlns="http://www.w3.org/2000/svg">
<path d="M4.40005 5.99961C3.44527 5.99961 2.5296 6.37889 1.85446 7.05403C1.17933 7.72916 0.800049 8.64483 0.800049 9.59961V27.5996C0.800049 28.5544 1.17933 29.4701 1.85446 30.1452C2.5296 30.8203 3.44527 31.1996 4.40005 31.1996H29.6C30.5548 31.1996 31.4705 30.8203 32.1456 30.1452C32.8208 29.4701 33.2001 28.5544 33.2001 27.5996V9.59961C33.2001 8.64483 32.8208 7.72916 32.1456 7.05403C31.4705 6.37889 30.5548 5.99961 29.6 5.99961H4.40005ZM4.40005 25.7996L10.7 17.6996L15.2 23.0996L21.5 14.9996L29.6 25.7996H4.40005ZM27.8001 0.599609C28.7548 0.599609 29.6705 0.978894 30.3456 1.65402C31.0208 2.32916 31.4 3.24483 31.4 4.19961H2.60005C2.60005 3.24483 2.97933 2.32916 3.65446 1.65402C4.3296 0.978894 5.24527 0.599609 6.20005 0.599609H27.8001Z" fill="white"/>
</svg>
