<svg width="24" height="24" viewBox="0 0 24 24" fill="none" xmlns="http://www.w3.org/2000/svg">
<g clip-path="url(#clip0_2552_453)">
<path d="M23.9839 12.2245C23.9839 11.2413 23.9023 10.5238 23.7257 9.77966H12.2393V14.2176H18.9815C18.8456 15.3205 18.1116 16.9815 16.4804 18.0976L16.4575 18.2462L20.0893 20.9964L20.3409 21.0209C22.6517 18.9347 23.9839 15.8653 23.9839 12.2245Z" fill="#4285F4"/>
<path d="M12.2387 23.9176C15.5418 23.9176 18.3148 22.8545 20.3403 21.0209L16.4798 18.0976C15.4467 18.8018 14.0602 19.2934 12.2387 19.2934C9.00348 19.2934 6.25763 17.2074 5.27882 14.324L5.13534 14.3359L1.35896 17.1927L1.30957 17.3269C3.32137 21.2334 7.45377 23.9176 12.2387 23.9176Z" fill="#34A853"/>
<path d="M5.27906 14.3239C5.02079 13.5798 4.87132 12.7825 4.87132 11.9587C4.87132 11.1349 5.02079 10.3376 5.26548 9.59354L5.25863 9.43507L1.43492 6.53235L1.30982 6.59052C0.480656 8.21162 0.00488281 10.032 0.00488281 11.9587C0.00488281 13.8854 0.480656 15.7058 1.30982 17.3269L5.27906 14.3239Z" fill="#FBBC05"/>
<path d="M12.2387 4.62403C14.5359 4.62403 16.0855 5.59402 16.9691 6.40461L20.4219 3.10928C18.3014 1.1826 15.5418 0 12.2387 0C7.45377 0 3.32137 2.68406 1.30957 6.59056L5.26523 9.59359C6.25764 6.7102 9.00348 4.62403 12.2387 4.62403Z" fill="#EB4335"/>
</g>
<defs>
<clipPath id="clip0_2552_453">
<rect width="24" height="24" fill="white"/>
</clipPath>
</defs>
</svg>
