<svg width="20" height="25" viewBox="0 0 20 25" fill="none" xmlns="http://www.w3.org/2000/svg">
<path d="M17.0003 8.33341H15.8337V6.00008C15.8337 2.78008 13.2203 0.166748 10.0003 0.166748C6.78033 0.166748 4.16699 2.78008 4.16699 6.00008V8.33341H3.00033C1.71699 8.33341 0.666992 9.38341 0.666992 10.6667V22.3334C0.666992 23.6167 1.71699 24.6667 3.00033 24.6667H17.0003C18.2837 24.6667 19.3337 23.6167 19.3337 22.3334V10.6667C19.3337 9.38341 18.2837 8.33341 17.0003 8.33341ZM10.0003 18.8334C8.71699 18.8334 7.66699 17.7834 7.66699 16.5001C7.66699 15.2167 8.71699 14.1667 10.0003 14.1667C11.2837 14.1667 12.3337 15.2167 12.3337 16.5001C12.3337 17.7834 11.2837 18.8334 10.0003 18.8334ZM13.617 8.33341H6.38366V6.00008C6.38366 4.00508 8.00533 2.38341 10.0003 2.38341C11.9953 2.38341 13.617 4.00508 13.617 6.00008V8.33341Z" fill="black"/>
</svg>
