<svg width="16" height="16" viewBox="0 0 16 16" fill="none" xmlns="http://www.w3.org/2000/svg">
<path d="M8.00002 1.33331C5.06669 1.33331 2.66669 3.73331 2.66669 6.66665C2.66669 10.2666 7.33335 14.3333 7.53335 14.5333C7.66669 14.6 7.86669 14.6666 8.00002 14.6666C8.13335 14.6666 8.33335 14.6 8.46669 14.5333C8.66669 14.3333 13.3334 10.2666 13.3334 6.66665C13.3334 3.73331 10.9334 1.33331 8.00002 1.33331ZM8.00002 13.1333C6.60002 11.8 4.00002 8.93331 4.00002 6.66665C4.00002 4.46665 5.80002 2.66665 8.00002 2.66665C10.2 2.66665 12 4.46665 12 6.66665C12 8.86665 9.40002 11.8 8.00002 13.1333ZM8.00002 3.99998C6.53335 3.99998 5.33335 5.19998 5.33335 6.66665C5.33335 8.13331 6.53335 9.33331 8.00002 9.33331C9.46669 9.33331 10.6667 8.13331 10.6667 6.66665C10.6667 5.19998 9.46669 3.99998 8.00002 3.99998ZM8.00002 7.99998C7.26669 7.99998 6.66669 7.39998 6.66669 6.66665C6.66669 5.93331 7.26669 5.33331 8.00002 5.33331C8.73335 5.33331 9.33335 5.93331 9.33335 6.66665C9.33335 7.39998 8.73335 7.99998 8.00002 7.99998Z" fill="black"/>
</svg>
