<?xml version="1.0" encoding="UTF-8"?>
<svg version="1.1" xmlns="http://www.w3.org/2000/svg" width="248" height="162">
<path d="M0 0 C20.90193575 -1.4590637 20.90193575 -1.4590637 28.1328125 3.45410156 C35.92247667 12.30193615 34.22487298 27.10818809 34.2578125 38.20410156 C34.26248535 39.3774707 34.2671582 40.55083984 34.27197266 41.75976562 C34.27651662 44.57454456 34.26855587 47.38933946 34.2578125 50.20410156 C40.8578125 50.20410156 47.4578125 50.20410156 54.2578125 50.20410156 C54.2578125 47.89410156 54.2578125 45.58410156 54.2578125 43.20410156 C54.8546601 39.06061498 55.76067123 34.98527588 56.6328125 30.89160156 C56.85453125 29.79525391 57.07625 28.69890625 57.3046875 27.56933594 C57.52382812 26.52455078 57.74296875 25.47976562 57.96875 24.40332031 C58.26724854 22.97765747 58.26724854 22.97765747 58.57177734 21.52319336 C59.2578125 19.20410156 59.2578125 19.20410156 61.2578125 17.20410156 C63.18139648 17.32836914 63.18139648 17.32836914 65.50390625 17.84863281 C66.34115234 18.03103516 67.17839844 18.2134375 68.04101562 18.40136719 C68.91693359 18.60439453 69.79285156 18.80742187 70.6953125 19.01660156 C71.56736328 19.20802734 72.43941406 19.39945313 73.33789062 19.59667969 C76.70882935 20.34548929 79.97938293 21.1112917 83.2578125 22.20410156 C83.5878125 20.22410156 83.9178125 18.24410156 84.2578125 16.20410156 C83.2678125 15.87410156 82.2778125 15.54410156 81.2578125 15.20410156 C81.5878125 13.88410156 81.9178125 12.56410156 82.2578125 11.20410156 C89.68638393 11.06124442 89.68638393 11.06124442 93.2578125 12.20410156 C93.5878125 13.85410156 93.9178125 15.50410156 94.2578125 17.20410156 C93.2678125 17.53410156 92.2778125 17.86410156 91.2578125 18.20410156 C90.04899154 20.20426623 90.04899154 20.20426623 89.2578125 22.20410156 C89.98226562 22.4090625 90.70671875 22.61402344 91.453125 22.82519531 C97.11542652 25.60902879 100.40773013 31.75559973 103.2578125 37.20410156 C103.8271421 40.5574007 103.23562344 42.98642139 102.2578125 46.20410156 C101.892624 48.05612894 101.53848173 49.91036803 101.1953125 51.76660156 C100.88670115 53.24658444 100.57563567 54.72606952 100.2578125 56.20410156 C97.18366964 57.22881585 94.48980341 57.93476899 91.2578125 58.20410156 C89.3828125 56.76660156 89.3828125 56.76660156 88.2578125 55.20410156 C87.2678125 56.19410156 87.2678125 56.19410156 86.2578125 57.20410156 C86.8765625 57.34847656 87.4953125 57.49285156 88.1328125 57.64160156 C90.2578125 58.20410156 90.2578125 58.20410156 92.2578125 59.20410156 C93.92602573 58.87859654 95.59280807 58.54564093 97.2578125 58.20410156 C98.2578125 59.20410156 98.2578125 59.20410156 98.27734375 61.04003906 C97.4979847 70.59821606 95.33917513 79.86217164 93.2578125 89.20410156 C88.3078125 88.21410156 83.3578125 87.22410156 78.2578125 86.20410156 C78.0309375 88.10160156 77.8040625 89.99910156 77.5703125 91.95410156 C76.53841644 100.01757774 75.11703307 108.0142731 73.6953125 116.01660156 C73.47335205 117.27504883 73.2513916 118.53349609 73.02270508 119.83007812 C72.81025146 121.01182617 72.59779785 122.19357422 72.37890625 123.41113281 C72.1873999 124.47823486 71.99589355 125.54533691 71.79858398 126.64477539 C71.2578125 129.20410156 71.2578125 129.20410156 70.2578125 131.20410156 C82.4678125 131.20410156 94.6778125 131.20410156 107.2578125 131.20410156 C107.2578125 131.86410156 107.2578125 132.52410156 107.2578125 133.20410156 C95.0478125 133.20410156 82.8378125 133.20410156 70.2578125 133.20410156 C69.9278125 135.51410156 69.5978125 137.82410156 69.2578125 140.20410156 C70.14134399 140.31685425 70.14134399 140.31685425 71.04272461 140.43188477 C73.76154095 140.78422035 76.47833993 141.15032961 79.1953125 141.51660156 C80.12150391 141.63455078 81.04769531 141.7525 82.00195312 141.87402344 C96.9769436 143.92323266 96.9769436 143.92323266 101.2578125 148.20410156 C101.3203125 150.14160156 101.3203125 150.14160156 100.2578125 152.20410156 C84.81393011 159.6512743 66.06108428 159.73352601 49.2578125 161.20410156 C48.41858246 161.28849487 47.57935242 161.37288818 46.71469116 161.45983887 C35.7195894 162.46071002 24.71946363 162.38751982 13.6875 162.40722656 C12.06637991 162.41146763 12.06637991 162.41146763 10.41250992 162.41579437 C4.67279067 162.430729 -1.0669039 162.43998991 -6.80664062 162.44433594 C-11.4743648 162.44868798 -16.14190074 162.46245993 -20.80957031 162.48535156 C-106.83835489 162.89897094 -106.83835489 162.89897094 -129.7421875 153.20410156 C-130.4021875 152.54410156 -131.0621875 151.88410156 -131.7421875 151.20410156 C-131.7421875 149.88410156 -131.7421875 148.56410156 -131.7421875 147.20410156 C-130.0169605 146.52730498 -128.28679811 145.86308156 -126.5546875 145.20410156 C-125.59175781 144.83285156 -124.62882812 144.46160156 -123.63671875 144.07910156 C-120.82036392 143.22773384 -118.66054311 143.03337509 -115.7421875 143.20410156 C-115.7421875 142.54410156 -115.7421875 141.88410156 -115.7421875 141.20410156 C-116.7115625 140.91535156 -117.6809375 140.62660156 -118.6796875 140.32910156 C-121.7421875 139.20410156 -121.7421875 139.20410156 -122.7421875 137.20410156 C-122.4121875 136.21410156 -122.0821875 135.22410156 -121.7421875 134.20410156 C-127.6821875 133.87410156 -133.6221875 133.54410156 -139.7421875 133.20410156 C-139.7421875 132.54410156 -139.7421875 131.88410156 -139.7421875 131.20410156 C-136.1121875 131.20410156 -132.4821875 131.20410156 -128.7421875 131.20410156 C-128.57388973 128.14168329 -128.40749088 125.0791817 -128.2421875 122.01660156 C-128.19449219 121.15228516 -128.14679688 120.28796875 -128.09765625 119.39746094 C-127.87939946 115.32853069 -127.67466531 111.28075383 -127.7421875 107.20410156 C-126.7521875 106.70910156 -126.7521875 106.70910156 -125.7421875 106.20410156 C-126.26167969 105.91277344 -126.78117187 105.62144531 -127.31640625 105.32128906 C-133.69554157 101.57163097 -138.54555746 97.59276625 -140.7421875 90.20410156 C-140.7421875 89.21410156 -140.7421875 88.22410156 -140.7421875 87.20410156 C-135.32857788 87.54245216 -131.55431864 90.60044634 -127.7421875 94.20410156 C-125.04793724 97.66481957 -122.70401497 101.28044662 -120.7421875 105.20410156 C-120.81198128 101.71441277 -120.89998484 99.1207988 -123.33203125 96.47363281 C-124.57947746 95.44047184 -125.85137428 94.43595981 -127.1484375 93.46582031 C-128.7421875 92.20410156 -128.7421875 92.20410156 -129.7421875 90.20410156 C-129.77255771 87.63564937 -129.67529935 85.08333957 -129.58203125 82.51660156 C-129.50157388 80.00700709 -129.50157388 80.00700709 -131.7421875 78.20410156 C-132.47292238 70.65317442 -130.82160321 64.12716755 -127.7421875 57.20410156 C-126.7521875 56.70910156 -126.7521875 56.70910156 -125.7421875 56.20410156 C-121.55481127 68.61744024 -118.90832086 81.14340794 -117.7421875 94.20410156 C-116.18326511 91.86571798 -115.20009191 89.98425206 -114.1171875 87.45410156 C-111.74872626 82.60952176 -108.14891175 79.2563781 -103.7421875 76.20410156 C-103.0821875 76.20410156 -102.4221875 76.20410156 -101.7421875 76.20410156 C-101.54975726 81.01485762 -101.87531101 84.74434107 -103.7421875 89.20410156 C-104.4021875 89.86410156 -105.0621875 90.52410156 -105.7421875 91.20410156 C-105.835 92.28691406 -105.835 92.28691406 -105.9296875 93.39160156 C-107.02246283 97.17428538 -109.20333313 98.92816496 -112.05078125 101.55566406 C-113.95418648 103.29599263 -113.95418648 103.29599263 -115.7421875 106.20410156 C-114.2571875 106.69910156 -114.2571875 106.69910156 -112.7421875 107.20410156 C-113.0721875 109.51410156 -113.4021875 111.82410156 -113.7421875 114.20410156 C-109.39125574 110.40098688 -106.59973633 105.61149832 -103.5546875 100.76660156 C-103.00876953 99.92033203 -102.46285156 99.0740625 -101.90039062 98.20214844 C-101.38025391 97.37908203 -100.86011719 96.55601563 -100.32421875 95.70800781 C-99.61616089 94.59147827 -99.61616089 94.59147827 -98.89379883 93.45239258 C-97.20138423 90.14829124 -96.3724535 87.58784374 -97.34716797 83.93994141 C-97.84821045 82.81386475 -97.84821045 82.81386475 -98.359375 81.66503906 C-98.89884766 80.42367187 -98.89884766 80.42367187 -99.44921875 79.15722656 C-99.83464844 78.30644531 -100.22007813 77.45566406 -100.6171875 76.57910156 C-101.36519601 74.87885014 -102.11261704 73.17834011 -102.859375 71.47753906 C-103.19565918 70.72907715 -103.53194336 69.98061523 -103.87841797 69.20947266 C-106.42970783 63.28626888 -107.00413513 57.52428113 -104.68359375 51.41894531 C-99.58929125 41.60309415 -92.60716311 33.42312393 -82.7421875 28.20410156 C-82.0821875 28.20410156 -81.4221875 28.20410156 -80.7421875 28.20410156 C-80.60941406 27.28886719 -80.47664063 26.37363281 -80.33984375 25.43066406 C-80.16324219 24.24214844 -79.98664063 23.05363281 -79.8046875 21.82910156 C-79.63066406 20.64574219 -79.45664063 19.46238281 -79.27734375 18.24316406 C-78.7421875 15.20410156 -78.7421875 15.20410156 -77.7421875 13.20410156 C-75.74609375 12.75488281 -75.74609375 12.75488281 -73.3046875 12.51660156 C-72.50160156 12.43023437 -71.69851562 12.34386719 -70.87109375 12.25488281 C-68.7421875 12.20410156 -68.7421875 12.20410156 -66.7421875 13.20410156 C-65.22724954 18.89733617 -65.70087392 23.76059869 -67.7421875 29.20410156 C-68.2371875 29.69910156 -68.2371875 29.69910156 -68.7421875 30.20410156 C-65.93502721 31.78939521 -63.96291959 32.45870015 -60.7421875 32.39160156 C-59.96101563 32.37871094 -59.17984375 32.36582031 -58.375 32.35253906 C-55.43822956 32.18696447 -52.53984282 31.84622434 -49.6171875 31.51660156 C-44.26898564 31.04710293 -41.30761754 31.35070779 -36.7421875 34.20410156 C-36.23171875 35.05101562 -35.72125 35.89792969 -35.1953125 36.77050781 C-31.43157276 40.50428147 -27.60137209 39.98440082 -22.4921875 40.01660156 C-21.55632812 40.04173828 -20.62046875 40.066875 -19.65625 40.09277344 C-17.35114018 40.15157726 -15.04792576 40.18790423 -12.7421875 40.20410156 C-12.87496094 38.96917969 -13.00773437 37.73425781 -13.14453125 36.46191406 C-14.07083885 27.65630633 -14.91090607 18.85663707 -15.4296875 10.01660156 C-15.47794678 9.24525879 -15.52620605 8.47391602 -15.57592773 7.67919922 C-15.67417189 5.85597042 -15.71436381 4.02976337 -15.7421875 2.20410156 C-13.3411624 -0.19692354 -8.20861954 0.49706023 -4.9921875 0.33007812 C-3.32709941 0.23685054 -1.66309564 0.12378454 0 0 Z M-72.7421875 41.20410156 C-72.48268261 44.31816027 -72.01135913 45.89780282 -69.9296875 48.26660156 C-60.58785544 53.94497007 -51.49122901 54.77653573 -40.7421875 54.20410156 C-40.0821875 51.23410156 -39.4221875 48.26410156 -38.7421875 45.20410156 C-41.72070312 45.30175781 -41.72070312 45.30175781 -44.69921875 45.39941406 C-46.7421875 45.20410156 -46.7421875 45.20410156 -49.7421875 43.20410156 C-52.02902093 42.85444507 -52.02902093 42.85444507 -54.55859375 42.82519531 C-55.48736328 42.79103516 -56.41613281 42.756875 -57.37304688 42.72167969 C-58.82420898 42.68204102 -58.82420898 42.68204102 -60.3046875 42.64160156 C-62.22278454 42.58178035 -64.14076819 42.5181655 -66.05859375 42.45019531 C-66.90881104 42.42626709 -67.75902832 42.40233887 -68.63500977 42.37768555 C-70.7421875 42.20410156 -70.7421875 42.20410156 -72.7421875 41.20410156 Z M-77.7421875 57.20410156 C-77.0821875 58.52410156 -76.4221875 59.84410156 -75.7421875 61.20410156 C-75.4121875 60.21410156 -75.0821875 59.22410156 -74.7421875 58.20410156 C-75.7321875 57.87410156 -76.7221875 57.54410156 -77.7421875 57.20410156 Z M-79.7421875 99.20410156 C-80.03875244 99.75235596 -80.33531738 100.30061035 -80.64086914 100.86547852 C-91.00067342 119.97507684 -91.00067342 119.97507684 -96.59765625 128.40332031 C-97.83158776 129.98914189 -97.83158776 129.98914189 -97.7421875 131.20410156 C-90.1521875 131.20410156 -82.5621875 131.20410156 -74.7421875 131.20410156 C-76.0621875 120.64410156 -77.3821875 110.08410156 -78.7421875 99.20410156 C-79.0721875 99.20410156 -79.4021875 99.20410156 -79.7421875 99.20410156 Z M-96.7421875 133.20410156 C-97.0721875 134.19410156 -97.4021875 135.18410156 -97.7421875 136.20410156 C-98.4021875 136.86410156 -99.0621875 137.52410156 -99.7421875 138.20410156 C-97.9162606 140.49324127 -97.9162606 140.49324127 -95.22021484 140.24755859 C-94.1833252 140.1532959 -93.14643555 140.0590332 -92.078125 139.96191406 C-90.39589844 139.81689453 -90.39589844 139.81689453 -88.6796875 139.66894531 C-86.91625 139.50072266 -86.91625 139.50072266 -85.1171875 139.32910156 C-83.93382812 139.2246875 -82.75046875 139.12027344 -81.53125 139.01269531 C-78.60056692 138.75271536 -75.67114217 138.4827788 -72.7421875 138.20410156 C-72.7421875 137.21410156 -72.7421875 136.22410156 -72.7421875 135.20410156 C-73.4021875 135.20410156 -74.0621875 135.20410156 -74.7421875 135.20410156 C-74.7421875 134.54410156 -74.7421875 133.88410156 -74.7421875 133.20410156 C-82.0021875 133.20410156 -89.2621875 133.20410156 -96.7421875 133.20410156 Z " fill="#1C3FB7" transform="translate(140.7421875,-0.2041015625)"/>
<path d="M0 0 C20.90193575 -1.4590637 20.90193575 -1.4590637 28.1328125 3.45410156 C35.92247667 12.30193615 34.22487298 27.10818809 34.2578125 38.20410156 C34.26248535 39.3774707 34.2671582 40.55083984 34.27197266 41.75976562 C34.27651662 44.57454456 34.26855587 47.38933946 34.2578125 50.20410156 C40.8578125 50.20410156 47.4578125 50.20410156 54.2578125 50.20410156 C54.2578125 47.89410156 54.2578125 45.58410156 54.2578125 43.20410156 C54.8546601 39.06061498 55.76067123 34.98527588 56.6328125 30.89160156 C56.85453125 29.79525391 57.07625 28.69890625 57.3046875 27.56933594 C57.52382812 26.52455078 57.74296875 25.47976562 57.96875 24.40332031 C58.26724854 22.97765747 58.26724854 22.97765747 58.57177734 21.52319336 C59.2578125 19.20410156 59.2578125 19.20410156 61.2578125 17.20410156 C63.18139648 17.32836914 63.18139648 17.32836914 65.50390625 17.84863281 C66.34115234 18.03103516 67.17839844 18.2134375 68.04101562 18.40136719 C68.91693359 18.60439453 69.79285156 18.80742187 70.6953125 19.01660156 C71.56736328 19.20802734 72.43941406 19.39945313 73.33789062 19.59667969 C76.70882935 20.34548929 79.97938293 21.1112917 83.2578125 22.20410156 C83.5878125 20.22410156 83.9178125 18.24410156 84.2578125 16.20410156 C83.2678125 15.87410156 82.2778125 15.54410156 81.2578125 15.20410156 C81.5878125 13.88410156 81.9178125 12.56410156 82.2578125 11.20410156 C89.68638393 11.06124442 89.68638393 11.06124442 93.2578125 12.20410156 C93.5878125 13.85410156 93.9178125 15.50410156 94.2578125 17.20410156 C93.2678125 17.53410156 92.2778125 17.86410156 91.2578125 18.20410156 C90.04899154 20.20426623 90.04899154 20.20426623 89.2578125 22.20410156 C89.98226562 22.4090625 90.70671875 22.61402344 91.453125 22.82519531 C97.11542652 25.60902879 100.40773013 31.75559973 103.2578125 37.20410156 C103.8271421 40.5574007 103.23562344 42.98642139 102.2578125 46.20410156 C101.892624 48.05612894 101.53848173 49.91036803 101.1953125 51.76660156 C100.88670115 53.24658444 100.57563567 54.72606952 100.2578125 56.20410156 C97.18366964 57.22881585 94.48980341 57.93476899 91.2578125 58.20410156 C89.3828125 56.76660156 89.3828125 56.76660156 88.2578125 55.20410156 C87.2678125 56.19410156 87.2678125 56.19410156 86.2578125 57.20410156 C86.8765625 57.34847656 87.4953125 57.49285156 88.1328125 57.64160156 C90.2578125 58.20410156 90.2578125 58.20410156 92.2578125 59.20410156 C93.92602573 58.87859654 95.59280807 58.54564093 97.2578125 58.20410156 C98.2578125 59.20410156 98.2578125 59.20410156 98.27734375 61.04003906 C97.4979847 70.59821606 95.33917513 79.86217164 93.2578125 89.20410156 C88.3078125 88.21410156 83.3578125 87.22410156 78.2578125 86.20410156 C78.0309375 88.10160156 77.8040625 89.99910156 77.5703125 91.95410156 C76.53841644 100.01757774 75.11703307 108.0142731 73.6953125 116.01660156 C73.47335205 117.27504883 73.2513916 118.53349609 73.02270508 119.83007812 C72.81025146 121.01182617 72.59779785 122.19357422 72.37890625 123.41113281 C72.1873999 124.47823486 71.99589355 125.54533691 71.79858398 126.64477539 C71.2578125 129.20410156 71.2578125 129.20410156 70.2578125 131.20410156 C82.4678125 131.20410156 94.6778125 131.20410156 107.2578125 131.20410156 C107.2578125 131.86410156 107.2578125 132.52410156 107.2578125 133.20410156 C95.0478125 133.20410156 82.8378125 133.20410156 70.2578125 133.20410156 C69.9278125 135.51410156 69.5978125 137.82410156 69.2578125 140.20410156 C70.14134399 140.31685425 70.14134399 140.31685425 71.04272461 140.43188477 C73.76154095 140.78422035 76.47833993 141.15032961 79.1953125 141.51660156 C80.12150391 141.63455078 81.04769531 141.7525 82.00195312 141.87402344 C96.9769436 143.92323266 96.9769436 143.92323266 101.2578125 148.20410156 C101.3203125 150.14160156 101.3203125 150.14160156 100.2578125 152.20410156 C84.81393011 159.6512743 66.06108428 159.73352601 49.2578125 161.20410156 C48.41858246 161.28849487 47.57935242 161.37288818 46.71469116 161.45983887 C35.7195894 162.46071002 24.71946363 162.38751982 13.6875 162.40722656 C12.06637991 162.41146763 12.06637991 162.41146763 10.41250992 162.41579437 C4.67279067 162.430729 -1.0669039 162.43998991 -6.80664062 162.44433594 C-11.4743648 162.44868798 -16.14190074 162.46245993 -20.80957031 162.48535156 C-106.83835489 162.89897094 -106.83835489 162.89897094 -129.7421875 153.20410156 C-130.4021875 152.54410156 -131.0621875 151.88410156 -131.7421875 151.20410156 C-131.7421875 149.88410156 -131.7421875 148.56410156 -131.7421875 147.20410156 C-130.0169605 146.52730498 -128.28679811 145.86308156 -126.5546875 145.20410156 C-125.59175781 144.83285156 -124.62882812 144.46160156 -123.63671875 144.07910156 C-120.82036392 143.22773384 -118.66054311 143.03337509 -115.7421875 143.20410156 C-115.7421875 142.54410156 -115.7421875 141.88410156 -115.7421875 141.20410156 C-116.7115625 140.91535156 -117.6809375 140.62660156 -118.6796875 140.32910156 C-121.7421875 139.20410156 -121.7421875 139.20410156 -122.7421875 137.20410156 C-122.4121875 136.21410156 -122.0821875 135.22410156 -121.7421875 134.20410156 C-127.6821875 133.87410156 -133.6221875 133.54410156 -139.7421875 133.20410156 C-139.7421875 132.54410156 -139.7421875 131.88410156 -139.7421875 131.20410156 C-136.1121875 131.20410156 -132.4821875 131.20410156 -128.7421875 131.20410156 C-128.57388973 128.14168329 -128.40749088 125.0791817 -128.2421875 122.01660156 C-128.19449219 121.15228516 -128.14679688 120.28796875 -128.09765625 119.39746094 C-127.87939946 115.32853069 -127.67466531 111.28075383 -127.7421875 107.20410156 C-126.7521875 106.70910156 -126.7521875 106.70910156 -125.7421875 106.20410156 C-126.26167969 105.91277344 -126.78117187 105.62144531 -127.31640625 105.32128906 C-133.69554157 101.57163097 -138.54555746 97.59276625 -140.7421875 90.20410156 C-140.7421875 89.21410156 -140.7421875 88.22410156 -140.7421875 87.20410156 C-135.32857788 87.54245216 -131.55431864 90.60044634 -127.7421875 94.20410156 C-125.04793724 97.66481957 -122.70401497 101.28044662 -120.7421875 105.20410156 C-120.81198128 101.71441277 -120.89998484 99.1207988 -123.33203125 96.47363281 C-124.57947746 95.44047184 -125.85137428 94.43595981 -127.1484375 93.46582031 C-128.7421875 92.20410156 -128.7421875 92.20410156 -129.7421875 90.20410156 C-129.77255771 87.63564937 -129.67529935 85.08333957 -129.58203125 82.51660156 C-129.50157388 80.00700709 -129.50157388 80.00700709 -131.7421875 78.20410156 C-132.47292238 70.65317442 -130.82160321 64.12716755 -127.7421875 57.20410156 C-126.7521875 56.70910156 -126.7521875 56.70910156 -125.7421875 56.20410156 C-121.55481127 68.61744024 -118.90832086 81.14340794 -117.7421875 94.20410156 C-116.18326511 91.86571798 -115.20009191 89.98425206 -114.1171875 87.45410156 C-111.74872626 82.60952176 -108.14891175 79.2563781 -103.7421875 76.20410156 C-103.0821875 76.20410156 -102.4221875 76.20410156 -101.7421875 76.20410156 C-101.54975726 81.01485762 -101.87531101 84.74434107 -103.7421875 89.20410156 C-104.4021875 89.86410156 -105.0621875 90.52410156 -105.7421875 91.20410156 C-105.835 92.28691406 -105.835 92.28691406 -105.9296875 93.39160156 C-107.02246283 97.17428538 -109.20333313 98.92816496 -112.05078125 101.55566406 C-113.95418648 103.29599263 -113.95418648 103.29599263 -115.7421875 106.20410156 C-114.2571875 106.69910156 -114.2571875 106.69910156 -112.7421875 107.20410156 C-112.2529494 114.08061492 -112.5856665 117.70676733 -116.7421875 123.20410156 C-116.05621217 126.37291014 -116.05621217 126.37291014 -113.37890625 127.55566406 C-112.40566406 127.97589844 -111.43242188 128.39613281 -110.4296875 128.82910156 C-108.98142578 129.4671875 -108.98142578 129.4671875 -107.50390625 130.11816406 C-105.24187905 131.00761747 -103.11267706 131.69734607 -100.7421875 132.20410156 C-101.0721875 133.52410156 -101.4021875 134.84410156 -101.7421875 136.20410156 C-103.0621875 136.53410156 -104.3821875 136.86410156 -105.7421875 137.20410156 C-104.49886695 138.80460006 -104.49886695 138.80460006 -102.7421875 140.20410156 C-100.81843758 140.36994355 -100.81843758 140.36994355 -98.74609375 139.92675781 C-93.39267279 139.1294398 -88.08386223 138.87100634 -82.6796875 138.64160156 C-81.71869141 138.59841797 -80.75769531 138.55523437 -79.76757812 138.51074219 C-77.42588473 138.40589024 -75.08410821 138.30372369 -72.7421875 138.20410156 C-72.7421875 136.88410156 -72.7421875 135.56410156 -72.7421875 134.20410156 C-68.7821875 134.20410156 -64.8221875 134.20410156 -60.7421875 134.20410156 C-60.23709542 136.45296394 -59.73829571 138.70324025 -59.2421875 140.95410156 C-58.96375 142.20707031 -58.6853125 143.46003906 -58.3984375 144.75097656 C-57.7421875 148.20410156 -57.7421875 148.20410156 -57.7421875 152.20410156 C3.1428125 151.70910156 3.1428125 151.70910156 65.2578125 151.20410156 C62.9478125 138.33410156 60.6378125 125.46410156 58.2578125 112.20410156 C57.2678125 106.59410156 56.2778125 100.98410156 55.2578125 95.20410156 C54.73764829 92.31418756 54.21512003 89.42469488 53.6875 86.53613281 C53.56094025 85.84194748 53.43438049 85.14776215 53.3039856 84.43254089 C52.91404887 82.29381124 52.5235141 80.15519161 52.1328125 78.01660156 C51.60884955 75.14820755 51.08550244 72.2797021 50.5625 69.41113281 C50.33546387 68.16823486 50.10842773 66.92533691 49.87451172 65.64477539 C49.31123514 62.50215592 48.78268926 59.35336211 48.2578125 56.20410156 C19.2178125 55.87410156 -9.8221875 55.54410156 -39.7421875 55.20410156 C-40.90159788 51.72587041 -40.45039634 49.74514578 -39.7421875 46.20410156 C-41.381875 46.26597656 -41.381875 46.26597656 -43.0546875 46.32910156 C-46.7421875 46.20410156 -46.7421875 46.20410156 -49.7421875 44.20410156 C-52.06142024 43.83834102 -52.06142024 43.83834102 -54.62890625 43.79003906 C-55.56669922 43.75136719 -56.50449219 43.71269531 -57.47070312 43.67285156 C-58.93540039 43.62644531 -58.93540039 43.62644531 -60.4296875 43.57910156 C-61.41775391 43.54042969 -62.40582031 43.50175781 -63.42382812 43.46191406 C-65.86309457 43.3676429 -68.30235345 43.28203939 -70.7421875 43.20410156 C-70.7421875 44.19410156 -70.7421875 45.18410156 -70.7421875 46.20410156 C-67.75198731 49.09293904 -64.48096855 50.08536963 -60.5546875 51.26660156 C-58.59910146 51.85540558 -56.65528793 52.48922137 -54.7421875 53.20410156 C-54.4121875 53.86410156 -54.0821875 54.52410156 -53.7421875 55.20410156 C-60.6721875 55.20410156 -67.6021875 55.20410156 -74.7421875 55.20410156 C-75.0721875 56.19410156 -75.4021875 57.18410156 -75.7421875 58.20410156 C-85.11047131 58.99702841 -91.28289716 58.12257324 -98.7421875 52.20410156 C-99.34804687 51.72585937 -99.95390625 51.24761719 -100.578125 50.75488281 C-101.7421875 49.20410156 -101.7421875 49.20410156 -101.65234375 47.32128906 C-98.45983825 39.89494579 -91.72497078 33.17959373 -84.7421875 29.20410156 C-82.5078125 28.55175781 -82.5078125 28.55175781 -80.7421875 28.20410156 C-80.60941406 27.28886719 -80.47664063 26.37363281 -80.33984375 25.43066406 C-80.16324219 24.24214844 -79.98664063 23.05363281 -79.8046875 21.82910156 C-79.63066406 20.64574219 -79.45664063 19.46238281 -79.27734375 18.24316406 C-78.7421875 15.20410156 -78.7421875 15.20410156 -77.7421875 13.20410156 C-75.74609375 12.75488281 -75.74609375 12.75488281 -73.3046875 12.51660156 C-72.50160156 12.43023437 -71.69851562 12.34386719 -70.87109375 12.25488281 C-68.7421875 12.20410156 -68.7421875 12.20410156 -66.7421875 13.20410156 C-65.22724954 18.89733617 -65.70087392 23.76059869 -67.7421875 29.20410156 C-68.2371875 29.69910156 -68.2371875 29.69910156 -68.7421875 30.20410156 C-65.93502721 31.78939521 -63.96291959 32.45870015 -60.7421875 32.39160156 C-59.96101563 32.37871094 -59.17984375 32.36582031 -58.375 32.35253906 C-55.43822956 32.18696447 -52.53984282 31.84622434 -49.6171875 31.51660156 C-44.26898564 31.04710293 -41.30761754 31.35070779 -36.7421875 34.20410156 C-36.23171875 35.05101562 -35.72125 35.89792969 -35.1953125 36.77050781 C-31.43157276 40.50428147 -27.60137209 39.98440082 -22.4921875 40.01660156 C-21.55632812 40.04173828 -20.62046875 40.066875 -19.65625 40.09277344 C-17.35114018 40.15157726 -15.04792576 40.18790423 -12.7421875 40.20410156 C-12.87496094 38.96917969 -13.00773437 37.73425781 -13.14453125 36.46191406 C-14.07083885 27.65630633 -14.91090607 18.85663707 -15.4296875 10.01660156 C-15.47794678 9.24525879 -15.52620605 8.47391602 -15.57592773 7.67919922 C-15.67417189 5.85597042 -15.71436381 4.02976337 -15.7421875 2.20410156 C-13.3411624 -0.19692354 -8.20861954 0.49706023 -4.9921875 0.33007812 C-3.32709941 0.23685054 -1.66309564 0.12378454 0 0 Z " fill="#1A39A0" transform="translate(140.7421875,-0.2041015625)"/>
<path d="M0 0 C2.23523406 2.23523406 2.49475254 3.25393519 3.21875 6.26171875 C3.42798096 7.12708252 3.63721191 7.99244629 3.8527832 8.8840332 C4.06636475 9.80917725 4.27994629 10.73432129 4.5 11.6875 C4.72067139 12.6261792 4.94134277 13.5648584 5.16870117 14.53198242 C6.9486101 22.31518939 8.18274568 30.05921549 9 38 C10.55892239 35.66161642 11.54209559 33.7801505 12.625 31.25 C14.99346124 26.4054202 18.59327575 23.05227653 23 20 C23.66 20 24.32 20 25 20 C25.19243024 24.81075606 24.86687649 28.54023951 23 33 C22.34 33.66 21.68 34.32 21 35 C20.938125 35.721875 20.87625 36.44375 20.8125 37.1875 C19.71972467 40.97018382 17.53885437 42.7240634 14.69140625 45.3515625 C12.78800102 47.09189107 12.78800102 47.09189107 11 50 C12.485 50.495 12.485 50.495 14 51 C14.4892381 57.87651335 14.156521 61.50266577 10 67 C10.68597533 70.16880858 10.68597533 70.16880858 13.36328125 71.3515625 C14.33652344 71.77179688 15.30976563 72.19203125 16.3125 72.625 C17.27800781 73.05039063 18.24351563 73.47578125 19.23828125 73.9140625 C21.50030845 74.80351591 23.62951044 75.49324451 26 76 C25.505 77.98 25.505 77.98 25 80 C23.02 80.495 23.02 80.495 21 81 C22.24332055 82.6004985 22.24332055 82.6004985 24 84 C25.92374992 84.16584199 25.92374992 84.16584199 27.99609375 83.72265625 C33.34951471 82.92533823 38.65832527 82.66690477 44.0625 82.4375 C45.02349609 82.39431641 45.98449219 82.35113281 46.97460938 82.30664062 C49.31630277 82.20178868 51.65807929 82.09962212 54 82 C54 80.68 54 79.36 54 78 C57.96 78 61.92 78 66 78 C66.50509208 80.24886238 67.00389179 82.49913869 67.5 84.75 C67.7784375 86.00296875 68.056875 87.2559375 68.34375 88.546875 C69 92 69 92 69 96 C109.92 96 150.84 96 193 96 C193.33 92.37 193.66 88.74 194 85 C198.2791021 84.14417958 200.04956519 83.94742697 204.08984375 84.671875 C205.03923828 84.84203125 205.98863281 85.0121875 206.96679688 85.1875 C207.94712891 85.373125 208.92746094 85.55875 209.9375 85.75 C210.91396484 85.92015625 211.89042969 86.0903125 212.89648438 86.265625 C218.01101683 87.20877946 222.53801474 88.1753052 227 91 C227.875 93.1875 227.875 93.1875 228 95 C224.02774014 97.68891437 220.13701183 98.9870631 215.5 100 C214.74243408 100.16733643 213.98486816 100.33467285 213.2043457 100.50708008 C200.97055976 103.01746396 188.42870671 103.95003067 176 105 C175.16297546 105.08365814 174.32595093 105.16731628 173.46356201 105.25350952 C162.46582395 106.25470228 151.46434859 106.18341344 140.4296875 106.203125 C138.80856741 106.20736607 138.80856741 106.20736607 137.15469742 106.21169281 C131.41497817 106.22662743 125.6752836 106.23588835 119.93554688 106.24023438 C115.2678227 106.24458642 110.60028676 106.25835837 105.93261719 106.28125 C19.90383261 106.69486938 19.90383261 106.69486938 -3 97 C-3.66 96.34 -4.32 95.68 -5 95 C-5 93.68 -5 92.36 -5 91 C-3.274773 90.32320342 -1.54461061 89.65898 0.1875 89 C1.15042969 88.62875 2.11335938 88.2575 3.10546875 87.875 C5.92182358 87.02363228 8.08164439 86.82927353 11 87 C11 86.34 11 85.68 11 85 C10.030625 84.71125 9.06125 84.4225 8.0625 84.125 C5 83 5 83 4 81 C4.495 79.515 4.495 79.515 5 78 C-0.94 77.67 -6.88 77.34 -13 77 C-13 76.34 -13 75.68 -13 75 C-9.37 75 -5.74 75 -2 75 C-1.83170223 71.93758173 -1.66530338 68.87508013 -1.5 65.8125 C-1.45230469 64.94818359 -1.40460937 64.08386719 -1.35546875 63.19335938 C-1.13721196 59.12442913 -0.93247781 55.07665227 -1 51 C-0.01 50.505 -0.01 50.505 1 50 C0.48050781 49.70867187 -0.03898438 49.41734375 -0.57421875 49.1171875 C-6.95335407 45.3675294 -11.80336996 41.38866468 -14 34 C-14 33.01 -14 32.02 -14 31 C-8.58639038 31.3383506 -4.81213114 34.39634478 -1 38 C1.69425026 41.46071801 4.03817253 45.07634506 6 49 C5.93020622 45.51031121 5.84220266 42.91669724 3.41015625 40.26953125 C2.16271004 39.23637028 0.89081322 38.23185825 -0.40625 37.26171875 C-2 36 -2 36 -3 34 C-3.03037021 31.43154781 -2.93311185 28.879238 -2.83984375 26.3125 C-2.75938638 23.80290553 -2.75938638 23.80290553 -5 22 C-5.74094258 14.34359337 -3.86390971 8.08501357 -1 1 C-0.67 0.67 -0.34 0.34 0 0 Z " fill="#E8E8E9" transform="translate(14,56)"/>
<path d="M0 0 C0.50789063 0.39832031 1.01578125 0.79664063 1.5390625 1.20703125 C8.53362875 6.59048954 13.45129268 9.32312011 22.4140625 9.3984375 C26.0391872 10.24174445 26.91450034 11.98113908 29 15 C29.90185547 17.50366211 29.90185547 17.50366211 30.4921875 20.33984375 C30.7303418 21.48308105 30.96849609 22.62631836 31.21386719 23.80419922 C32.97250684 33.03521067 34.54887363 42.2989861 36.125 51.5625 C36.66392561 54.71538338 37.20392207 57.86807655 37.74557495 61.02049255 C38.08011942 62.96897244 38.41297839 64.91774268 38.743927 66.86683655 C38.89433441 67.74552902 39.04474182 68.6242215 39.19970703 69.52954102 C39.3959819 70.68317894 39.3959819 70.68317894 39.59622192 71.86012268 C39.86749326 73.29776233 40.18441239 74.72746304 40.54391479 76.14561462 C41.34520995 79.40358046 41.05567141 82.65971551 41 86 C34.565 86.495 34.565 86.495 28 87 C28 86.34 28 85.68 28 85 C20.74 85 13.48 85 6 85 C4.83830958 88.9595774 4.83830958 88.9595774 5 93 C2.75 93.3125 2.75 93.3125 0 93 C-2.3125 90.5 -2.3125 90.5 -4 88 C-2.35 88 -0.7 88 1 88 C1.33 86.68 1.66 85.36 2 84 C0.5459375 83.9071875 0.5459375 83.9071875 -0.9375 83.8125 C-5.88225603 83.14374201 -9.81116224 80.57409304 -14 78 C-14 69.59354131 -7.55412353 62.25211148 -2.81640625 55.6171875 C-0.78533777 52.69070173 1.13399466 49.72207728 3 46.6875 C3.598125 45.72199219 4.19625 44.75648437 4.8125 43.76171875 C6.44932959 39.9550131 5.58516232 37.54925641 4.15209961 33.75512695 C3.82218018 33.00706787 3.49226074 32.25900879 3.15234375 31.48828125 C2.79462891 30.64716797 2.43691406 29.80605469 2.06835938 28.93945312 C1.32092239 27.20317896 0.56326284 25.47126603 -0.20507812 23.74414062 C-2.72137069 17.76055161 -3.84978087 12.49896682 -3 6 C-1.5 2.375 -1.5 2.375 0 0 Z M23 51 C22.70343506 51.54825439 22.40687012 52.09650879 22.10131836 52.66137695 C11.74151408 71.77097528 11.74151408 71.77097528 6.14453125 80.19921875 C4.91059974 81.78504033 4.91059974 81.78504033 5 83 C12.59 83 20.18 83 28 83 C26.68 72.44 25.36 61.88 24 51 C23.67 51 23.34 51 23 51 Z " fill="#36464E" transform="translate(38,48)"/>
<path d="M0 0 C20.90193575 -1.4590637 20.90193575 -1.4590637 28.1328125 3.45410156 C37.89684083 14.56048403 34.2578125 37.74180407 34.2578125 51.20410156 C24.0278125 51.20410156 13.7978125 51.20410156 3.2578125 51.20410156 C3.2578125 47.57410156 3.2578125 43.94410156 3.2578125 40.20410156 C-2.0221875 40.20410156 -7.3021875 40.20410156 -12.7421875 40.20410156 C-13.82277453 30.15359305 -14.83739022 20.10934726 -15.4296875 10.01660156 C-15.47794678 9.24525879 -15.52620605 8.47391602 -15.57592773 7.67919922 C-15.67417189 5.85597042 -15.71436381 4.02976337 -15.7421875 2.20410156 C-13.3411624 -0.19692354 -8.20861954 0.49706023 -4.9921875 0.33007812 C-3.32709941 0.23685054 -1.66309564 0.12378454 0 0 Z " fill="#EAEAEA" transform="translate(140.7421875,-0.2041015625)"/>
<path d="M0 0 C7.42857143 -0.14285714 7.42857143 -0.14285714 11 1 C11.495 3.475 11.495 3.475 12 6 C11.01 6.33 10.02 6.66 9 7 C7.79117904 9.00016466 7.79117904 9.00016466 7 11 C7.72445312 11.20496094 8.44890625 11.40992188 9.1953125 11.62109375 C14.85761402 14.40492723 18.14991763 20.55149817 21 26 C21.5693296 29.35329913 20.97781094 31.78231982 20 35 C19.6348115 36.85202738 19.28066923 38.70626646 18.9375 40.5625 C18.62888865 42.04248288 18.31782317 43.52196796 18 45 C14.92585714 46.02471429 12.23199091 46.73066742 9 47 C7.125 45.5625 7.125 45.5625 6 44 C4.35 44.99 2.7 45.98 1 47 C1 44.69 1 42.38 1 40 C-0.69769531 40.01740234 -0.69769531 40.01740234 -2.4296875 40.03515625 C-3.91145669 40.04453454 -5.39322765 40.0536347 -6.875 40.0625 C-7.62136719 40.07087891 -8.36773437 40.07925781 -9.13671875 40.08789062 C-14.7734375 40.11328125 -14.7734375 40.11328125 -17 39 C-17.99 39.495 -17.99 39.495 -19 40 C-21.69013339 40.18704404 -24.29686177 40.08581391 -27 40 C-28 39 -28 39 -28.2109375 36.20703125 C-28.12780008 30.59525531 -26.78973558 25.15455941 -25.625 19.6875 C-25.40328125 18.59115234 -25.1815625 17.49480469 -24.953125 16.36523438 C-24.73398438 15.32044922 -24.51484375 14.27566406 -24.2890625 13.19921875 C-24.09006348 12.24877686 -23.89106445 11.29833496 -23.68603516 10.3190918 C-23 8 -23 8 -21 6 C-19.07641602 6.12426758 -19.07641602 6.12426758 -16.75390625 6.64453125 C-15.91666016 6.82693359 -15.07941406 7.00933594 -14.21679688 7.19726562 C-13.34087891 7.40029297 -12.46496094 7.60332031 -11.5625 7.8125 C-10.25442383 8.09963867 -10.25442383 8.09963867 -8.91992188 8.39257812 C-5.54898315 9.14138773 -2.27842957 9.90719014 1 11 C1.33 9.02 1.66 7.04 2 5 C1.01 4.67 0.02 4.34 -1 4 C-0.67 2.68 -0.34 1.36 0 0 Z " fill="#E7E8E8" transform="translate(223,11)"/>
<path d="M0 0 C2.23523406 2.23523406 2.49475254 3.25393519 3.21875 6.26171875 C3.42798096 7.12708252 3.63721191 7.99244629 3.8527832 8.8840332 C4.06636475 9.80917725 4.27994629 10.73432129 4.5 11.6875 C4.72067139 12.6261792 4.94134277 13.5648584 5.16870117 14.53198242 C6.9486101 22.31518939 8.18274568 30.05921549 9 38 C10.55892239 35.66161642 11.54209559 33.7801505 12.625 31.25 C14.99346124 26.4054202 18.59327575 23.05227653 23 20 C23.66 20 24.32 20 25 20 C25.19243024 24.81075606 24.86687649 28.54023951 23 33 C22.34 33.66 21.68 34.32 21 35 C20.938125 35.721875 20.87625 36.44375 20.8125 37.1875 C19.71972467 40.97018382 17.53885437 42.7240634 14.69140625 45.3515625 C12.78800102 47.09189107 12.78800102 47.09189107 11 50 C12.485 50.495 12.485 50.495 14 51 C14.4892381 57.87651335 14.156521 61.50266577 10 67 C10.68597533 70.16880858 10.68597533 70.16880858 13.36328125 71.3515625 C14.33652344 71.77179688 15.30976563 72.19203125 16.3125 72.625 C17.27800781 73.05039063 18.24351563 73.47578125 19.23828125 73.9140625 C21.50030845 74.80351591 23.62951044 75.49324451 26 76 C25.505 77.98 25.505 77.98 25 80 C23.02 80.495 23.02 80.495 21 81 C22.12109566 82.62493901 22.12109566 82.62493901 24 84 C24.99 83.95875 25.98 83.9175 27 83.875 C27.99 83.91625 28.98 83.9575 30 84 C32.70361469 87.24433763 33 88.70892052 33 93 C27.71568157 92.57154175 23.60449924 90.50785327 18.89453125 88.265625 C15.33907904 86.71101432 11.75767 85.70028989 7.99609375 84.7734375 C6 84 6 84 4 81 C4.495 79.515 4.495 79.515 5 78 C-0.94 77.67 -6.88 77.34 -13 77 C-13 76.34 -13 75.68 -13 75 C-9.37 75 -5.74 75 -2 75 C-1.83170223 71.93758173 -1.66530338 68.87508013 -1.5 65.8125 C-1.45230469 64.94818359 -1.40460937 64.08386719 -1.35546875 63.19335938 C-1.13721196 59.12442913 -0.93247781 55.07665227 -1 51 C-0.01 50.505 -0.01 50.505 1 50 C0.48050781 49.70867187 -0.03898438 49.41734375 -0.57421875 49.1171875 C-6.95335407 45.3675294 -11.80336996 41.38866468 -14 34 C-14 33.01 -14 32.02 -14 31 C-8.58639038 31.3383506 -4.81213114 34.39634478 -1 38 C1.69425026 41.46071801 4.03817253 45.07634506 6 49 C5.93020622 45.51031121 5.84220266 42.91669724 3.41015625 40.26953125 C2.16271004 39.23637028 0.89081322 38.23185825 -0.40625 37.26171875 C-2 36 -2 36 -3 34 C-3.03037021 31.43154781 -2.93311185 28.879238 -2.83984375 26.3125 C-2.75938638 23.80290553 -2.75938638 23.80290553 -5 22 C-5.74094258 14.34359337 -3.86390971 8.08501357 -1 1 C-0.67 0.67 -0.34 0.34 0 0 Z " fill="#D7D6D6" transform="translate(14,56)"/>
<path d="M0 0 C0.66 0.33 1.32 0.66 2 1 C3.51493796 6.6932346 3.04131358 11.55649713 1 17 C0.505 17.495 0.505 17.495 0 18 C2.80716029 19.58529364 4.77926791 20.25459859 8 20.1875 C8.78117187 20.17460938 9.56234375 20.16171875 10.3671875 20.1484375 C13.30395794 19.98286291 16.20234468 19.64212278 19.125 19.3125 C24.47838563 18.84935722 27.46166199 19.06899004 32 22 C33.64135557 23.93043013 34.7586271 25.76552878 36 28 C34.02 28.66 32.04 29.32 30 30 C30 30.99 30 31.98 30 33 C22.375 34.25 22.375 34.25 19 32 C16.68076726 31.63423946 16.68076726 31.63423946 14.11328125 31.5859375 C13.17548828 31.54726563 12.23769531 31.50859375 11.27148438 31.46875 C10.29501953 31.4378125 9.31855469 31.406875 8.3125 31.375 C7.32443359 31.33632813 6.33636719 31.29765625 5.31835938 31.2578125 C2.87909293 31.16354133 0.43983405 31.07793782 -2 31 C-2 31.99 -2 32.98 -2 34 C0.99020019 36.88883748 4.26121895 37.88126807 8.1875 39.0625 C10.14308604 39.65130402 12.08689957 40.28511981 14 41 C14.33 41.66 14.66 42.32 15 43 C8.07 43 1.14 43 -6 43 C-6.33 43.99 -6.66 44.98 -7 46 C-16.36828381 46.79292684 -22.54070966 45.91847168 -30 40 C-30.90878906 39.28263672 -30.90878906 39.28263672 -31.8359375 38.55078125 C-33 37 -33 37 -32.91015625 35.1171875 C-29.71765075 27.69084422 -22.98278328 20.97549216 -16 17 C-13.765625 16.34765625 -13.765625 16.34765625 -12 16 C-11.86722656 15.08476562 -11.73445313 14.16953125 -11.59765625 13.2265625 C-11.42105469 12.03804687 -11.24445312 10.84953125 -11.0625 9.625 C-10.80146484 7.84996094 -10.80146484 7.84996094 -10.53515625 6.0390625 C-10 3 -10 3 -9 1 C-5.77390955 -0.07536348 -3.37822416 -0.14375422 0 0 Z " fill="#2041B6" transform="translate(72,12)"/>
<path d="M0 0 C2.23523406 2.23523406 2.49475254 3.25393519 3.21875 6.26171875 C3.42798096 7.12708252 3.63721191 7.99244629 3.8527832 8.8840332 C4.06636475 9.80917725 4.27994629 10.73432129 4.5 11.6875 C4.72067139 12.6261792 4.94134277 13.5648584 5.16870117 14.53198242 C6.9486101 22.31518939 8.18274568 30.05921549 9 38 C10.55892239 35.66161642 11.54209559 33.7801505 12.625 31.25 C14.99346124 26.4054202 18.59327575 23.05227653 23 20 C23.66 20 24.32 20 25 20 C25.19243024 24.81075606 24.86687649 28.54023951 23 33 C22.34 33.66 21.68 34.32 21 35 C20.938125 35.721875 20.87625 36.44375 20.8125 37.1875 C19.7207864 40.96650861 17.54029397 42.64634828 14.7109375 45.28515625 C12.80412729 47.05657686 12.80412729 47.05657686 11.25 49.9375 C10.8375 50.618125 10.425 51.29875 10 52 C9.01 52 8.02 52 7 52 C6.93683594 51.34773438 6.87367187 50.69546875 6.80859375 50.0234375 C6.1041931 44.99624125 5.45708215 41.81121317 1.4375 38.5 C0.50744141 37.83484375 0.50744141 37.83484375 -0.44140625 37.15625 C-2 36 -2 36 -3 34 C-3.03037021 31.43154781 -2.93311185 28.879238 -2.83984375 26.3125 C-2.75938638 23.80290553 -2.75938638 23.80290553 -5 22 C-5.74094258 14.34359337 -3.86390971 8.08501357 -1 1 C-0.67 0.67 -0.34 0.34 0 0 Z " fill="#EBEBEB" transform="translate(14,56)"/>
<path d="M0 0 C1.875 0.75 1.875 0.75 3.875 1.75 C5.54321323 1.42449498 7.20999557 1.09153937 8.875 0.75 C9.875 1.75 9.875 1.75 9.89453125 3.5859375 C9.1151722 13.14411449 6.95636263 22.40807008 4.875 31.75 C-0.075 30.76 -5.025 29.77 -10.125 28.75 C-8.8387444 5.34014812 -8.8387444 5.34014812 -4.15234375 0.8671875 C-2.125 -0.25 -2.125 -0.25 0 0 Z " fill="#E8E8EA" transform="translate(229.125,57.25)"/>
<path d="M0 0 C2.47555146 1.92542891 3.36131106 2.76077355 4.25 5.75 C4.91298343 12.71132597 4.91298343 12.71132597 2.375 16.6875 C-1.19300902 20.15056758 -3.66820693 19.8975294 -8.42578125 19.8515625 C-11.25636772 19.72787301 -13.97148071 19.2921501 -16.75 18.75 C-17.41 18.75 -18.07 18.75 -18.75 18.75 C-17.35007137 4.66713583 -17.35007137 4.66713583 -11.75 -0.25 C-7.41696854 -1.69434382 -4.20952222 -1.91341919 0 0 Z " fill="#D2D7E7" transform="translate(96.75,5.25)"/>
<path d="M0 0 C3.359375 3.83005666 3.359375 3.83005666 3.359375 5.55859375 C1.379375 6.21859375 -0.600625 6.87859375 -2.640625 7.55859375 C-2.640625 8.54859375 -2.640625 9.53859375 -2.640625 10.55859375 C-10.265625 11.80859375 -10.265625 11.80859375 -13.640625 9.55859375 C-15.66604648 9.19507871 -15.66604648 9.19507871 -17.87109375 9.14453125 C-18.67353516 9.10585938 -19.47597656 9.0671875 -20.30273438 9.02734375 C-21.55280273 8.9809375 -21.55280273 8.9809375 -22.828125 8.93359375 C-23.67310547 8.89492188 -24.51808594 8.85625 -25.38867188 8.81640625 C-27.47230024 8.72223096 -29.55643253 8.639327 -31.640625 8.55859375 C-32.70310002 5.29650828 -32.72413629 4.7476053 -31.24609375 1.40234375 C-27.70576481 -2.4617634 -25.01627001 -2.60644781 -19.953125 -2.94140625 C-19.14528564 -3.00908203 -18.33744629 -3.07675781 -17.50512695 -3.14648438 C-4.6121218 -4.05207844 -4.6121218 -4.05207844 0 0 Z " fill="#E59180" transform="translate(104.640625,34.44140625)"/>
<path d="M0 0 C1.010625 0.309375 2.02125 0.61875 3.0625 0.9375 C5.70278056 1.70869757 7.97542993 2.11380016 10.75 2.4375 C14.03239046 3.00560604 15.06376564 3.38038881 17 6 C15.68 6.33 14.36 6.66 13 7 C14.12109566 8.62493901 14.12109566 8.62493901 16 10 C16.99 9.95875 17.98 9.9175 19 9.875 C20.485 9.936875 20.485 9.936875 22 10 C24.70361469 13.24433763 25 14.70892052 25 19 C19.71568157 18.57154175 15.60449924 16.50785327 10.89453125 14.265625 C7.33907904 12.71101432 3.75767 11.70028989 -0.00390625 10.7734375 C-2 10 -2 10 -4 7 C-3.67 6.01 -3.34 5.02 -3 4 C-8.94 3.67 -14.88 3.34 -21 3 C-21 2.34 -21 1.68 -21 1 C-20.09906616 1.00785522 -20.09906616 1.00785522 -19.17993164 1.01586914 C-16.47413162 1.03658014 -13.76834823 1.04964125 -11.0625 1.0625 C-10.11697266 1.07087891 -9.17144531 1.07925781 -8.19726562 1.08789062 C-7.29814453 1.09111328 -6.39902344 1.09433594 -5.47265625 1.09765625 C-4.64000244 1.10289307 -3.80734863 1.10812988 -2.94946289 1.11352539 C-0.99483202 1.21643292 -0.99483202 1.21643292 0 0 Z " fill="#8F9092" transform="translate(22,130)"/>
<path d="M0 0 C0.66 0.33 1.32 0.66 2 1 C3.51493796 6.6932346 3.04131358 11.55649713 1 17 C0 18 0 18 -3 18.0625 C-3.99 18.041875 -4.98 18.02125 -6 18 C-6.33 18 -6.66 18 -7 18 C-6.67 18.66 -6.34 19.32 -6 20 C-6.33 20.66 -6.66 21.32 -7 22 C-8.32 21.67 -9.64 21.34 -11 21 C-12.74195601 14.19053562 -11.39184919 7.54911089 -9 1 C-5.77390955 -0.07536348 -3.37822416 -0.14375422 0 0 Z " fill="#D4897A" transform="translate(72,12)"/>
<path d="M0 0 C0.5775 0.165 1.155 0.33 1.75 0.5 C4.44978103 1.09995134 6.32055583 0.56409351 9 0 C9.66 0.33 10.32 0.66 11 1 C11 2.32 11 3.64 11 5 C11.99 5 12.98 5 14 5 C14 6.98 14 8.96 14 11 C13.34 11 12.68 11 12 11 C12 12.65 12 14.3 12 16 C7.375 18.125 7.375 18.125 4 17 C4 17.66 4 18.32 4 19 C2.02 18.34 0.04 17.68 -2 17 C-2 16.01 -2 15.02 -2 14 C-2.99 13.34 -3.98 12.68 -5 12 C-5.3125 9.5 -5.3125 9.5 -5 7 C-4.34 6.34 -3.68 5.68 -3 5 C-2.31731862 3.67479497 -1.6492959 2.34187818 -1 1 C-0.67 0.67 -0.34 0.34 0 0 Z M2 6 C1.22757731 7.83700789 1.22757731 7.83700789 1 10 C2.35444301 11.77190909 2.35444301 11.77190909 4 13 C5.32 12.34 6.64 11.68 8 11 C7.67 9.35 7.34 7.7 7 6 C5.35 6 3.7 6 2 6 Z " fill="#E9E9E9" transform="translate(23,27)"/>
<path d="M0 0 C0.639375 0.763125 1.27875 1.52625 1.9375 2.3125 C5.30101245 5.91551953 9.84395621 6.78454843 14.453125 8.10546875 C17 9 17 9 18 11 C11.07 11 4.14 11 -3 11 C-3.33 11.99 -3.66 12.98 -4 14 C-6.8326134 12.5836933 -7.01707833 10.85502707 -8.125 7.9375 C-8.47820313 7.01839844 -8.83140625 6.09929688 -9.1953125 5.15234375 C-9.46085937 4.44207031 -9.72640625 3.73179688 -10 3 C-3.375 -1.125 -3.375 -1.125 0 0 Z " fill="#DE8F85" transform="translate(69,44)"/>
<path d="M0 0 C5.42375433 0.33898465 9.17211661 3.40388299 13 7 C16.60705754 11.42330978 19.12862195 15.30098721 20 21 C12.50641265 18.42407935 6.57481295 14.45855946 2 8 C0.52787222 4.98564312 0 3.36369412 0 0 Z " fill="#ECECEC" transform="translate(0,87)"/>
<path d="M0 0 C3.96 0 7.92 0 12 0 C14 8.5 14 8.5 14 13 C9.71 13 5.42 13 1 13 C-0.45781334 8.62655999 -0.0598032 4.60484643 0 0 Z " fill="#A2A3A7" transform="translate(68,134)"/>
<path d="M0 0 C2.5 1.5625 2.5 1.5625 4 4 C4.98430445 9.68709236 3.28291698 12.56935335 0.1796875 17.06640625 C-1.3851015 19.63120941 -1.77726527 22.03020358 -2 25 C-3.32 25 -4.64 25 -6 25 C-6.69590181 19.57196592 -4.87693432 16.62590827 -1.99609375 12.24609375 C-0.74624406 9.42780524 -1.14704835 7.9061646 -2 5 C-4.97 5 -7.94 5 -11 5 C-11 3.68 -11 2.36 -11 1 C-7.28759918 -0.23746694 -3.85825935 -0.54341681 0 0 Z " fill="#DBDBDB" transform="translate(153,14)"/>
<path d="M0 0 C1.546875 0.680625 1.546875 0.680625 3.125 1.375 C6.36437508 2.76707361 9.63739693 3.93380878 13 5 C11.7874262 8.72433382 10.49140021 12.37802806 9 16 C7.68 16 6.36 16 5 16 C2.37165703 17.07289408 2.37165703 17.07289408 -0.25 18.5 C-1.14203125 18.9640625 -2.0340625 19.428125 -2.953125 19.90625 C-3.62859375 20.2671875 -4.3040625 20.628125 -5 21 C-7.33928571 15.61607143 -7.33928571 15.61607143 -6 12 C-5.67 13.98 -5.34 15.96 -5 18 C-4.05125 17.505 -3.1025 17.01 -2.125 16.5 C1 15 1 15 3 15 C2.67 14.01 2.34 13.02 2 12 C2.03205618 9.98046082 2.06418361 7.96092245 2.09765625 5.94140625 C1.97857063 3.57398417 1.31016239 1.96524359 0 0 Z " fill="#233EA2" transform="translate(63,27)"/>
<path d="M0 0 C0 0.66 0 1.32 0 2 C0.66 2.33 1.32 2.66 2 3 C2.19642641 6.53567531 2.30634419 9.19227664 0 12 C-6.14634146 13.42682927 -6.14634146 13.42682927 -9 12 C-9 11.01 -9 10.02 -9 9 C-9.66 9 -10.32 9 -11 9 C-11.33 7.68 -11.66 6.36 -12 5 C-11.34 5 -10.68 5 -10 5 C-10.33 4.01 -10.66 3.02 -11 2 C-7.49890112 -1.50109888 -4.63591413 -1.15897853 0 0 Z M-6 4 C-6 5.32 -6 6.64 -6 8 C-5.01 8 -4.02 8 -3 8 C-3 6.68 -3 5.36 -3 4 C-3.99 4 -4.98 4 -6 4 Z " fill="#EAEAEA" transform="translate(50,14)"/>
<path d="M0 0 C3.4375 0.3125 3.4375 0.3125 5.4375 1.3125 C6.71118421 8.49144737 6.71118421 8.49144737 5.4375 12.3125 C1.41945309 13.15348656 -1.58053543 13.36654945 -5.5625 12.3125 C-5.2325 11.3225 -4.9025 10.3325 -4.5625 9.3125 C-5.2225 9.3125 -5.8825 9.3125 -6.5625 9.3125 C-6.8014871 6.44465478 -6.71070847 4.63507137 -5.5 2 C-3.5625 0.3125 -3.5625 0.3125 0 0 Z M-0.5625 4.3125 C-1.5525 5.7975 -1.5525 5.7975 -2.5625 7.3125 C-0.5825 8.3025 -0.5825 8.3025 1.4375 9.3125 C1.7675 7.9925 2.0975 6.6725 2.4375 5.3125 C1.4475 4.9825 0.4575 4.6525 -0.5625 4.3125 Z " fill="#EAEAEA" transform="translate(241.5625,94.6875)"/>
<path d="M0 0 C6.57692308 0.57692308 6.57692308 0.57692308 8 2 C7.28 8.72 7.28 8.72 6 10 C3.0625 10.1875 3.0625 10.1875 0 10 C-2 8 -2 8 -2.25 5 C-2 2 -2 2 0 0 Z " fill="#E0E1E8" transform="translate(146,104)"/>
<path d="M0 0 C5.56818182 0.56818182 5.56818182 0.56818182 7 2 C7.1875 4.9375 7.1875 4.9375 7 8 C5 10 5 10 1.875 10.125 C0.92625 10.08375 -0.0225 10.0425 -1 10 C-2.36118461 7.75804887 -3.06138028 6.52173238 -2.75 3.875 C-2 2 -2 2 0 0 Z " fill="#E3E4E9" transform="translate(106,104)"/>
<path d="M0 0 C0.66 0.33 1.32 0.66 2 1 C2.4140625 3.06640625 2.4140625 3.06640625 2.625 5.5625 C2.69976562 6.38878906 2.77453125 7.21507812 2.8515625 8.06640625 C2.90054688 8.70449219 2.94953125 9.34257812 3 10 C2.01 8.68 1.02 7.36 0 6 C-0.8971875 6.2784375 -0.8971875 6.2784375 -1.8125 6.5625 C-4 7 -4 7 -7 6 C-7 6.99 -7 7.98 -7 9 C-7.99 9 -8.98 9 -10 9 C-10.125 3.25 -10.125 3.25 -9 1 C-5.77390955 -0.07536348 -3.37822416 -0.14375422 0 0 Z " fill="#2C343A" transform="translate(72,12)"/>
<path d="M0 0 C3.4072219 1.70361095 5.48035706 3.13232136 8.25 5.625 C8.95640625 6.25664063 9.6628125 6.88828125 10.390625 7.5390625 C10.92171875 8.02117188 11.4528125 8.50328125 12 9 C7.7975546 11.80163026 4.99895065 11.14489712 0 11 C0 7.37 0 3.74 0 0 Z " fill="#DBDBDB" transform="translate(160,0)"/>
<path d="M0 0 C3.9252025 3.70090521 6.94580156 7.54959656 10 12 C5.47907032 13.45606519 2.48351204 12.27032841 -2 11 C-1.34 7.37 -0.68 3.74 0 0 Z " fill="#DCDCDC" transform="translate(234,25)"/>
<path d="M0 0 C7.42857143 -0.14285714 7.42857143 -0.14285714 11 1 C11.33 2.65 11.66 4.3 12 6 C11.01 6 10.02 6 9 6 C6.66435067 6.31669821 4.3306218 6.64820803 2 7 C2 6.34 2 5.68 2 5 C1.01 4.67 0.02 4.34 -1 4 C-0.67 2.68 -0.34 1.36 0 0 Z " fill="#E2E3E3" transform="translate(223,11)"/>
<path d="M0 0 C1.396478 0.45636536 2.7921508 0.91519488 4.1875 1.375 C5.01507813 1.64570313 5.84265625 1.91640625 6.6953125 2.1953125 C9 3 9 3 11.5625 4.25 C15.23738355 5.3807334 18.22929815 4.63910201 22 4 C22.33 5.98 22.66 7.96 23 10 C17.654876 9.56661157 13.43107817 7.47275304 8.68359375 5.15625 C6.10094433 4.04349276 3.76840557 3.44054194 1 3 C0.67 2.01 0.34 1.02 0 0 Z " fill="#8E9091" transform="translate(24,139)"/>
<path d="M0 0 C2.5 2.3125 2.5 2.3125 5 5 C5 5.99 5 6.98 5 8 C3.68 8 2.36 8 1 8 C-1.62834297 9.07289408 -1.62834297 9.07289408 -4.25 10.5 C-5.14203125 10.9640625 -6.0340625 11.428125 -6.953125 11.90625 C-7.62859375 12.2671875 -8.3040625 12.628125 -9 13 C-11.33928571 7.61607143 -11.33928571 7.61607143 -10 4 C-9.67 5.98 -9.34 7.96 -9 10 C-7.576875 9.2575 -7.576875 9.2575 -6.125 8.5 C-3 7 -3 7 -1 7 C-0.67 4.69 -0.34 2.38 0 0 Z " fill="#243F9D" transform="translate(67,35)"/>
<path d="M0 0 C3.96 0 7.92 0 12 0 C11.67 1.32 11.34 2.64 11 4 C7.37 4 3.74 4 0 4 C0 2.68 0 1.36 0 0 Z " fill="#F7E3DF" transform="translate(68,134)"/>
<path d="M0 0 C5.65020618 0.60108576 10.66164461 2.07528683 16 4 C15.67 4.99 15.34 5.98 15 7 C14.13375 6.690625 13.2675 6.38125 12.375 6.0625 C9.07919407 4.93478135 9.07919407 4.93478135 5.875 4.5 C3.18783893 4.03266764 1.34332162 3.35191632 -1 2 C-0.67 1.34 -0.34 0.68 0 0 Z " fill="#F9F2F1" transform="translate(24,128)"/>
<path d="M0 0 C0.99 0 1.98 0 3 0 C3.33 1.65 3.66 3.3 4 5 C3.01 5 2.02 5 1 5 C-1.33564933 5.31669821 -3.6693782 5.64820803 -6 6 C-5.67 4.35 -5.34 2.7 -5 1 C-1.125 1.875 -1.125 1.875 0 3 C0 2.01 0 1.02 0 0 Z " fill="#5E6B72" transform="translate(231,12)"/>
<path d="M0 0 C2.125 0.375 2.125 0.375 4 1 C4 2.32 4 3.64 4 5 C2.35 5.33 0.7 5.66 -1 6 C-1.625 4.125 -1.625 4.125 -2 2 C-1.34 1.34 -0.68 0.68 0 0 Z " fill="#DCDCDC" transform="translate(148,43)"/>
<path d="M0 0 C3.375 0.25 3.375 0.25 7 1 C8.4375 3.0625 8.4375 3.0625 9 5 C6.75 5.3125 6.75 5.3125 4 5 C1.6875 2.5 1.6875 2.5 0 0 Z " fill="#5E6467" transform="translate(34,136)"/>
<path d="M0 0 C2.5 2.3125 2.5 2.3125 5 5 C5 5.99 5 6.98 5 8 C3.02 7.34 1.04 6.68 -1 6 C-0.67 4.02 -0.34 2.04 0 0 Z " fill="#25323F" transform="translate(67,35)"/>
<path d="M0 0 C0.33 1.32 0.66 2.64 1 4 C-1.64 3.67 -4.28 3.34 -7 3 C-7.33 2.01 -7.66 1.02 -8 0 C-4.71023192 -1.09658936 -3.28696233 -0.79953138 0 0 Z " fill="#C07F71" transform="translate(104,34)"/>
<path d="M0 0 C0.33 0 0.66 0 1 0 C1 3.3 1 6.6 1 10 C3.475 10.99 3.475 10.99 6 12 C4 13 4 13 -2 13 C-1.34 8.71 -0.68 4.42 0 0 Z " fill="#50585C" transform="translate(80,11)"/>
<path d="M0 0 C0.66 0 1.32 0 2 0 C2 1.32 2 2.64 2 4 C4.97 4 7.94 4 11 4 C11 4.33 11 4.66 11 5 C7.37 5 3.74 5 0 5 C-0.33 3.68 -0.66 2.36 -1 1 C-0.67 0.67 -0.34 0.34 0 0 Z " fill="#62686B" transform="translate(71,142)"/>
<path d="M0 0 C2 2 2 2 2 6 C-0.97 5.505 -0.97 5.505 -4 5 C-3.34 4.67 -2.68 4.34 -2 4 C-0.86649466 1.98330173 -0.86649466 1.98330173 0 0 Z " fill="#A6A6A6" transform="translate(45,143)"/>
<path d="M0 0 C1.32 0.33 2.64 0.66 4 1 C4 1.66 4 2.32 4 3 C2.68 2.67 1.36 2.34 0 2 C0 1.34 0 0.68 0 0 Z " fill="#212A2E" transform="translate(89,46)"/>
<path d="M0 0 C4 1 4 1 4 1 Z " fill="#263037" transform="translate(88,52)"/>
<path d="M0 0 C0.66 0 1.32 0 2 0 C2 0.66 2 1.32 2 2 C1.34 2 0.68 2 0 2 C0 1.34 0 0.68 0 0 Z " fill="#1D222A" transform="translate(219,18)"/>
<path d="M0 0 C0.99 0.495 0.99 0.495 2 1 C1.01 1.495 1.01 1.495 0 2 C0 1.34 0 0.68 0 0 Z " fill="#22313A" transform="translate(222,17)"/>
</svg>
