<svg width="32" height="32" viewBox="0 0 32 32" fill="none" xmlns="http://www.w3.org/2000/svg">
<path d="M5.55978 20.4001L11.5998 26.4401C14.0798 28.9201 18.1064 28.9201 20.5998 26.4401L26.4531 20.5867C28.9331 18.1067 28.9331 14.0801 26.4531 11.5867L20.3998 5.56007C19.1331 4.2934 17.3864 3.6134 15.5998 3.70673L8.93311 4.02673C6.26644 4.14673 4.14644 6.26673 4.01311 8.92007L3.69311 15.5867C3.61311 17.3867 4.29311 19.1334 5.55978 20.4001Z" fill="#1C3FB7" stroke="#1C3FB7" stroke-width="1.5" stroke-linecap="round" stroke-linejoin="round"/>
<path d="M12.6666 16.0002C14.5075 16.0002 15.9999 14.5078 15.9999 12.6668C15.9999 10.8259 14.5075 9.3335 12.6666 9.3335C10.8256 9.3335 9.33325 10.8259 9.33325 12.6668C9.33325 14.5078 10.8256 16.0002 12.6666 16.0002Z" fill="white" stroke="#1C3FB7" stroke-width="1.5" stroke-linecap="round"/>
</svg>
