<svg width="20" height="20" viewBox="0 0 20 20" fill="none" xmlns="http://www.w3.org/2000/svg">
<path fill-rule="evenodd" clip-rule="evenodd" d="M10.0003 0.666748C7.42199 0.666748 5.33366 2.75508 5.33366 5.33342C5.33366 7.91175 7.42199 10.0001 10.0003 10.0001C12.5787 10.0001 14.667 7.91175 14.667 5.33342C14.667 2.75508 12.5787 0.666748 10.0003 0.666748ZM12.3337 5.33342C12.3337 4.05008 11.2837 3.00008 10.0003 3.00008C8.71699 3.00008 7.66699 4.05008 7.66699 5.33342C7.66699 6.61675 8.71699 7.66675 10.0003 7.66675C11.2837 7.66675 12.3337 6.61675 12.3337 5.33342ZM17.0003 15.8334C16.767 15.0051 13.1503 13.5001 10.0003 13.5001C6.85033 13.5001 3.23366 15.0051 3.00033 15.8451V17.0001H17.0003V15.8334ZM0.666992 15.8334C0.666992 12.7301 6.88533 11.1667 10.0003 11.1667C13.1153 11.1667 19.3337 12.7301 19.3337 15.8334V19.3334H0.666992V15.8334Z" fill="#717171"/>
</svg>
