<svg width="24" height="24" viewBox="0 0 24 24" fill="none" xmlns="http://www.w3.org/2000/svg">
<g clip-path="url(#clip0_7050_1586)">
<path d="M10.496 20.9966C16.2929 20.9966 20.9922 16.2973 20.9922 10.5004C20.9922 4.7035 16.2929 0.00427246 10.496 0.00427246C4.69908 0.00427246 -0.000202179 4.70355 -0.000202179 10.5005C-0.000202179 16.2974 4.69913 20.9966 10.496 20.9966ZM10.496 3.0032C14.6366 3.0032 17.9933 6.35982 17.9933 10.5005C17.9933 14.6411 14.6366 17.9977 10.496 17.9977C6.35535 17.9977 2.99873 14.6411 2.99873 10.5005C2.99873 6.35982 6.3554 3.0032 10.496 3.0032Z" fill="#1C3FB7"/>
<path d="M22.4918 23.9957C22.8904 23.998 23.2735 23.8415 23.5565 23.5608C24.1444 22.9776 24.1483 22.0283 23.5651 21.4403C23.5622 21.4374 23.5593 21.4345 23.5565 21.4316L17.9185 15.7936C17.3099 15.2057 16.3398 15.2225 15.7518 15.8311C15.1638 16.4398 15.1806 17.4099 15.7893 17.9979L21.4272 23.5608C21.7102 23.8415 22.0933 23.998 22.4918 23.9957Z" fill="#1C3FB7"/>
</g>
<defs>
<clipPath id="clip0_7050_1586">
<rect width="24" height="24" fill="white" transform="matrix(-1 0 0 1 24 0)"/>
</clipPath>
</defs>
</svg>
